<svg width="44" height="44" viewBox="0 0 44 44" fill="none" xmlns="http://www.w3.org/2000/svg">
<path d="M26.3118 33.0003C26.177 33.0007 26.0463 32.9548 25.9414 32.8701C25.8815 32.8221 25.8317 32.7626 25.795 32.6952C25.7582 32.6278 25.7351 32.5538 25.7271 32.4774C25.7191 32.4011 25.7263 32.3239 25.7483 32.2503C25.7703 32.1767 25.8066 32.1082 25.8553 32.0488L28.6126 28.681L36.5509 18.11L37.4823 16.7551C37.6656 16.4893 38.0323 16.4196 38.2999 16.6011C38.5676 16.7845 38.6373 17.1475 38.4558 17.4133L37.5171 18.7773L37.5024 18.7975L29.5494 29.3886L29.5348 29.407L26.7701 32.784C26.7147 32.852 26.6448 32.9067 26.5655 32.9442C26.4862 32.9816 26.3995 33.0008 26.3118 33.0003ZM17.7758 34.8336C17.6802 34.8346 17.5857 34.8137 17.4996 34.7723C17.4134 34.731 17.3379 34.6704 17.2789 34.5953L13.5573 29.7645L5.08909 18.9936L3.84792 17.4316C3.79959 17.3714 3.76424 17.3017 3.74407 17.2272C3.72389 17.1526 3.71935 17.0746 3.73071 16.9982C3.74207 16.9218 3.76909 16.8485 3.81008 16.783C3.85107 16.7176 3.90515 16.6612 3.96892 16.6176C4.10084 16.5252 4.26267 16.4858 4.4223 16.5072C4.58193 16.5286 4.72767 16.6093 4.83059 16.7331L6.07542 18.297L14.5473 29.077L18.2726 33.9096C18.4724 34.17 18.4119 34.533 18.1369 34.7218C18.0305 34.7945 17.9046 34.8335 17.7758 34.8336Z" fill="white" stroke="white" stroke-width="0.338462"/>
<path d="M19.7715 29.3329C19.6745 29.3318 19.5804 29.3 19.5026 29.242C19.4249 29.184 19.3675 29.1029 19.3388 29.0102L17.8153 23.9667L16.1928 18.7417L16.1892 18.7252L14.7408 13.4086C14.709 13.2929 14.7244 13.1692 14.7837 13.0649C14.843 12.9605 14.9414 12.884 15.0571 12.8522C15.1728 12.8203 15.2964 12.8357 15.4008 12.895C15.5051 12.9544 15.5817 13.0527 15.6135 13.1684L17.0582 18.4777L18.6788 23.6991L20.2042 28.7462C20.2248 28.8141 20.2292 28.8859 20.2171 28.9558C20.205 29.0257 20.1767 29.0918 20.1345 29.1488C20.0922 29.2059 20.0372 29.2522 19.9739 29.2842C19.9106 29.3161 19.8424 29.3328 19.7715 29.3329ZM22.5032 29.3329C22.4483 29.3346 22.3938 29.3239 22.3437 29.3017C22.2314 29.2531 22.1422 29.1632 22.0944 29.0505C22.0466 28.9379 22.044 28.8113 22.087 28.6967L23.7425 24.1354L25.2843 18.8096L25.2953 18.7766L26.6905 14.9669C26.7095 14.9102 26.7398 14.858 26.7796 14.8134C26.8195 14.7688 26.868 14.7328 26.9222 14.7075C26.9764 14.6823 27.0352 14.6684 27.095 14.6667C27.1547 14.6649 27.2142 14.6754 27.2698 14.6974C27.5008 14.7909 27.6145 15.0641 27.5265 15.3042L26.1368 19.0992L24.595 24.4251L24.584 24.4562L22.9212 29.0304C22.891 29.1177 22.8347 29.1935 22.7599 29.2477C22.6851 29.3018 22.5955 29.3316 22.5032 29.3329Z" fill="white" stroke="white" stroke-width="0.451282"/>
<path d="M23.177 1.83301H21.8203L21.7562 1.97967H20.5902L20.5627 1.83301H19.1253C16.9748 1.83253 14.8452 2.25576 12.8582 3.07853C10.8712 3.90129 9.06584 5.10747 7.54515 6.62816C6.02446 8.14884 4.81828 9.95424 3.99552 11.9412C3.17275 13.9282 2.74952 16.0578 2.75 18.2083C2.75 18.586 3.124 18.85 3.4815 18.7235L7.60283 17.2568C8.63861 16.8879 9.75859 16.8242 10.8295 17.0735L14.4247 17.9113C14.5779 17.9466 14.7379 17.9384 14.8867 17.8875L14.8078 15.2383L19.1932 14.7287L25.6557 15.539L26.9995 15.9075L27.4945 17.8875V17.9095C27.6202 17.9362 27.7501 17.9362 27.8758 17.9095L31.4747 17.0717C32.545 16.8227 33.6643 16.8864 34.6995 17.255L38.8208 18.7235C38.9034 18.7524 38.9917 18.7611 39.0783 18.749C39.165 18.737 39.2475 18.7044 39.319 18.654C39.3906 18.6036 39.449 18.5369 39.4896 18.4594C39.5302 18.3819 39.5517 18.2958 39.5523 18.2083C39.5528 16.0578 39.1296 13.9282 38.3068 11.9412C37.4841 9.95424 36.2779 8.14884 34.7572 6.62816C33.2365 5.10747 31.4311 3.90129 29.4441 3.07853C27.4572 2.25576 25.3276 1.83253 23.177 1.83301Z" fill="url(#paint0_linear_3912_1619)"/>
<path d="M21.2221 42.1679C23.6105 42.1679 25.901 41.2191 27.5899 39.5303C29.2787 37.8415 30.2275 35.5509 30.2275 33.1626C30.2275 30.7742 29.2787 28.4837 27.5899 26.7948C25.901 25.106 23.6105 24.1572 21.2221 24.1572C18.8338 24.1572 16.5432 25.106 14.8544 26.7948C13.1656 28.4837 12.2168 30.7742 12.2168 33.1626C12.2168 35.5509 13.1656 37.8415 14.8544 39.5303C16.5432 41.2191 18.8338 42.1679 21.2221 42.1679Z" fill="url(#paint1_linear_3912_1619)"/>
<path d="M21.7852 27.5V29.183H20.9291V27.5H21.7852ZM21.6752 36.9398V38.5H20.8209V36.9398H21.6752ZM22.0364 35.0093C22.0431 34.8295 22.0119 34.6502 21.9447 34.4832C21.8802 34.3382 21.7791 34.2125 21.6514 34.1183C21.4816 33.9953 21.299 33.8908 21.1069 33.8067C20.6302 33.5989 20.2086 33.385 19.8419 33.165C19.4963 32.9618 19.2031 32.6806 18.9857 32.3437C18.7816 32.0173 18.6796 31.5914 18.6796 31.0658C18.6796 30.5892 18.789 30.1736 19.0077 29.8192C19.229 29.4647 19.5339 29.1909 19.9226 28.9978C20.343 28.7932 20.8063 28.692 21.2737 28.7027C21.6612 28.7027 22.0144 28.7638 22.3334 28.886C22.6477 29.0067 22.9323 29.1936 23.168 29.434C23.4037 29.6744 23.5848 29.9627 23.6992 30.2793C23.8251 30.6154 23.8881 30.9974 23.8881 31.4252H22.0749C22.0749 31.2052 22.0535 31.0157 22.0107 30.8568C21.9787 30.7186 21.9201 30.5878 21.8384 30.4718C21.77 30.3796 21.6806 30.3049 21.5776 30.2539C21.4747 30.2029 21.3611 30.1771 21.2462 30.1785C21.091 30.1702 20.9374 30.2141 20.8099 30.3032C20.6981 30.3842 20.6137 30.4974 20.5679 30.6277C20.5161 30.7723 20.4906 30.925 20.4927 31.0787C20.4927 31.251 20.5196 31.4032 20.5734 31.5352C20.6416 31.6753 20.7414 31.7976 20.8649 31.8927C21.0006 32.0027 21.187 32.1145 21.4241 32.2282C21.8897 32.4396 22.3053 32.6596 22.6707 32.8882C23.0374 33.1143 23.3246 33.3936 23.5324 33.726C23.7451 34.0536 23.8514 34.4771 23.8514 34.9965C23.8514 35.4976 23.7414 35.9254 23.5214 36.2798C23.3026 36.6318 22.9983 36.8995 22.6084 37.0828C22.2173 37.2686 21.7651 37.3615 21.2517 37.3615C20.9071 37.3615 20.5649 37.3132 20.2251 37.2167C19.889 37.1212 19.5741 36.9625 19.2974 36.7492C19.0127 36.5134 18.7868 36.2146 18.6374 35.8765C18.4598 35.4539 18.3748 34.9982 18.3881 34.54H20.2031C20.2031 34.7991 20.2312 35.0148 20.2874 35.1872C20.3461 35.3607 20.4237 35.4994 20.5202 35.6033C20.6155 35.701 20.7314 35.7762 20.8594 35.8233C20.9853 35.8661 21.1161 35.8875 21.2517 35.8875C21.4351 35.8875 21.5836 35.849 21.6972 35.772C21.8107 35.6919 21.899 35.5813 21.9521 35.453C22.0106 35.3125 22.0393 35.1615 22.0364 35.0093Z" fill="white"/>
<path fill-rule="evenodd" clip-rule="evenodd" d="M21.8068 1.83301L23.2111 3.57651C26.4525 7.60434 27.9851 12.7432 27.4828 17.8875L27.4773 17.9095L27.4755 17.9077V17.9132L27.426 17.8985L27.404 17.8893L25.8163 17.3522L22.8023 16.3292C21.7225 15.9625 20.5528 15.9625 19.473 16.3292L16.4571 17.3522L14.875 17.8875C14.3722 12.7421 15.9057 7.6045 19.1466 3.57651L20.5491 1.83301H21.8068Z" fill="white"/>
<defs>
<linearGradient id="paint0_linear_3912_1619" x1="21.1512" y1="18.7565" x2="21.1512" y2="1.83301" gradientUnits="userSpaceOnUse">
<stop stop-color="#FF5135"/>
<stop offset="1" stop-color="#AF3622"/>
</linearGradient>
<linearGradient id="paint1_linear_3912_1619" x1="21.2221" y1="42.1689" x2="21.2221" y2="24.1572" gradientUnits="userSpaceOnUse">
<stop stop-color="#FF5135"/>
<stop offset="1" stop-color="#AF3622"/>
</linearGradient>
</defs>
</svg>
