<svg width="54" height="50" viewBox="0 0 54 50" fill="none" xmlns="http://www.w3.org/2000/svg">
<g filter="url(#filter0_d_4174_389)">
<path d="M6.42007 2.82309L11.6698 7.28933C12.0607 7.60438 12.4516 7.82676 12.8612 7.82676C13.2707 7.82676 13.6617 7.60438 14.0526 7.28933L19.3023 2.82309C20.9591 1.45171 19.0045 -1.12425 17.1242 0.54364L12.8612 4.39832L8.59814 0.54364C6.71793 -1.12425 4.76325 1.45171 6.42007 2.82309ZM10.106 42H43.894C47.915 42 50 39.9244 50 35.9771V16.5369C50 12.5895 47.915 10.5139 43.894 10.5139H38.9049C37.4529 10.5139 36.9875 10.273 36.0939 9.32787L34.6232 7.7341C33.6552 6.73337 32.6686 6.21447 30.7697 6.21447H23.1372C21.2384 6.21447 20.2517 6.73337 19.2837 7.7341L17.813 9.32787C16.9195 10.2545 16.4355 10.5139 15.002 10.5139H10.106C6.08499 10.5139 4 12.5895 4 16.5369V35.9771C4 39.9244 6.08499 42 10.106 42ZM27.0093 36.218C21.4245 36.218 16.9567 31.7517 16.9567 26.1736C16.9567 20.6139 21.4245 16.1477 27.0093 16.1477C32.5941 16.1477 37.0619 20.6139 37.0619 26.1736C37.0619 31.7517 32.5755 36.218 27.0093 36.218ZM38.2533 19.3723C38.2533 18.0565 39.3889 16.9075 40.7479 16.9075C42.0696 16.9075 43.2052 18.0565 43.2052 19.3723C43.2052 20.7251 42.0696 21.8185 40.7479 21.8185C39.3889 21.8371 38.2533 20.7437 38.2533 19.3723ZM27.0093 32.9007C30.7325 32.9007 33.7483 29.9171 33.7483 26.1736C33.7483 22.4486 30.7325 19.4649 27.0093 19.4649C23.2861 19.4649 20.2703 22.4486 20.2703 26.1736C20.2703 29.9171 23.2861 32.9007 27.0093 32.9007Z" fill="#CACACA"/>
</g>
<defs>
<filter id="filter0_d_4174_389" x="0" y="0" width="54" height="50" filterUnits="userSpaceOnUse" color-interpolation-filters="sRGB">
<feFlood flood-opacity="0" result="BackgroundImageFix"/>
<feColorMatrix in="SourceAlpha" type="matrix" values="0 0 0 0 0 0 0 0 0 0 0 0 0 0 0 0 0 0 127 0" result="hardAlpha"/>
<feOffset dy="4"/>
<feGaussianBlur stdDeviation="2"/>
<feComposite in2="hardAlpha" operator="out"/>
<feColorMatrix type="matrix" values="0 0 0 0 0 0 0 0 0 0 0 0 0 0 0 0 0 0 0.25 0"/>
<feBlend mode="normal" in2="BackgroundImageFix" result="effect1_dropShadow_4174_389"/>
<feBlend mode="normal" in="SourceGraphic" in2="effect1_dropShadow_4174_389" result="shape"/>
</filter>
</defs>
</svg>
