<svg width="140" height="37" viewBox="0 0 140 37" fill="none" xmlns="http://www.w3.org/2000/svg">
<path d="M20.6142 0H1.88816C0.848614 0 0 0.848819 0 1.88862V21.9915H20.6142C24.2067 21.9915 27.1486 18.957 27.1486 15.2575V6.73396C27.1486 3.02745 24.2067 0 20.6142 0ZM22.559 15.2575C22.559 16.3539 21.6891 17.2593 20.6213 17.2593H11.3361H4.60373V5.9488C4.60373 5.2839 5.14118 4.74631 5.80593 4.74631H20.6213C21.6891 4.74631 22.559 5.64465 22.559 6.74811V15.2717V15.2575ZM30.4016 2.84354V1.88862C30.4016 0.841745 31.2502 0 32.2897 0H52.2251C53.2717 0 54.1132 0.848819 54.1132 1.88862V2.84354C54.1132 3.89042 53.2646 4.73216 52.2251 4.73216H32.2897C31.2431 4.73216 30.4016 3.88335 30.4016 2.84354ZM56.4116 10.2424V11.7491C56.4116 12.6403 55.6903 13.3618 54.7992 13.3618H32.2897C31.2431 13.3618 30.4016 12.513 30.4016 11.4732V10.5183C30.4016 9.4714 31.2502 8.62966 32.2897 8.62966H54.7992C55.6903 8.62966 56.4116 9.35115 56.4116 10.2424ZM54.1203 19.1479V20.1029C54.1203 21.1497 53.2717 21.9915 52.2322 21.9915H32.2968C31.2502 21.9915 30.4086 21.1427 30.4086 20.1029V19.1479C30.4086 18.1011 31.2573 17.2593 32.2968 17.2593H52.2322C53.2788 17.2593 54.1203 18.1081 54.1203 19.1479ZM112.434 1.88862V2.84354C112.434 3.89042 111.586 4.73216 110.546 4.73216H90.6107C89.5641 4.73216 88.7225 3.88335 88.7225 2.84354V1.88862C88.7225 0.841745 89.5712 0 90.6107 0H110.546C111.593 0 112.434 0.848819 112.434 1.88862ZM112.434 19.1479V20.1029C112.434 21.1497 111.586 21.9915 110.546 21.9915H90.6107C89.5641 21.9915 88.7225 21.1427 88.7225 20.1029V19.1479C88.7225 18.1011 89.5712 17.2593 90.6107 17.2593H110.546C111.593 17.2593 112.434 18.1081 112.434 19.1479ZM140 1.88862V20.0958C140 21.1427 139.151 21.9844 138.112 21.9844H136.931C135.255 21.9844 134.166 20.7112 134.166 20.7112L123.544 9.93118C122.356 8.72869 120.305 9.57043 120.305 11.261V20.0887C120.305 21.1356 119.456 21.9773 118.417 21.9773H117.604C116.557 21.9773 115.716 21.1285 115.716 20.0887V1.88862C115.716 0.841745 116.564 0 117.604 0H119.492C120.326 0 120.772 0.488071 120.772 0.488071L132.164 12.0532C133.353 13.2557 135.403 12.414 135.403 10.7234V1.88862C135.403 0.841745 136.252 0 137.292 0H138.105C139.151 0 139.993 0.848819 139.993 1.88862H140ZM112.434 10.4546V11.5439C112.434 12.5554 111.614 13.3689 110.61 13.3689H86.8273C85.816 13.3689 85.0028 14.1894 85.0028 15.1939V15.2646C85.0028 18.9711 82.0609 21.9986 78.4685 21.9986H64.3885C61.3053 21.9986 58.7382 19.7492 58.0664 16.7783H58.0381C58.0098 16.6439 57.9886 16.5025 57.9674 16.361C57.9108 16.0002 57.8613 15.6395 57.8613 15.2646V6.74104C57.8613 3.03453 60.8032 0.00707349 64.3956 0.00707349H78.4755C81.9053 0.00707349 84.7341 2.76573 84.9886 6.23175C84.9886 6.23175 85.1584 7.10886 84.338 7.10886H80.9648C80.4203 7.10886 80.3849 6.45102 80.3849 6.45102C80.2505 5.48903 79.4373 4.73924 78.4685 4.73924H64.3885C63.8299 4.73924 63.3349 4.99388 62.9813 5.38293C62.8186 5.55976 62.6842 5.76489 62.5994 5.99125C62.5075 6.2176 62.4509 6.47224 62.4509 6.73396V15.2575C62.4509 15.4909 62.5075 15.7102 62.5852 15.9224C62.6065 15.979 62.6206 16.0427 62.6489 16.0993C62.7196 16.2478 62.8186 16.3822 62.9176 16.5095C62.9954 16.6086 63.0732 16.6934 63.1722 16.7712C63.5116 17.0613 63.9289 17.2593 64.3956 17.2593H78.4755C79.5434 17.2593 80.4132 16.361 80.4132 15.2575V14.2177C80.4132 13.7509 80.0313 13.3689 79.5646 13.3689H66.2272H65.4988C64.6078 13.3689 63.8864 12.6474 63.8864 11.7561V10.1788C63.8864 9.32286 64.5795 8.62966 65.4352 8.62966H68.469H80.8021H110.617C111.628 8.62966 112.441 9.45018 112.441 10.4546H112.434Z" fill="white"/>
<path d="M13.8672 32.0129V31.1641H19.9984V32.0129H17.4526V36.936H16.413V32.0129H13.8672Z" fill="#EAEAEA"/>
<path d="M29.2637 36.936V31.1641H34.6736V31.9775H30.3032V33.6115H33.7543V34.3896H30.3032V36.1226H34.8362V36.936H29.2637Z" fill="#EAEAEA"/>
<path d="M49.2905 36.936L47.0417 34.6584H45.3091V36.936H44.2695V31.1641H48.1519C48.7955 31.1641 49.3117 31.3197 49.7077 31.6238C50.1038 31.928 50.3018 32.3666 50.3018 32.9395C50.3018 33.5125 50.1179 33.9298 49.7502 34.2127C49.3824 34.4957 48.8803 34.6442 48.2439 34.6513L50.62 36.936H49.2905ZM45.3091 31.9987V33.8661H48.1024C48.456 33.8661 48.746 33.7883 48.9511 33.6256C49.1561 33.47 49.2622 33.2366 49.2622 32.9395C49.2622 32.6424 49.1561 32.409 48.944 32.2463C48.7318 32.0836 48.449 31.9987 48.0954 31.9987H45.302H45.3091Z" fill="#EAEAEA"/>
<path d="M66.4919 31.1641H68.3164L68.3023 36.936H67.3052V31.6875L64.7593 36.936H63.3379L60.792 31.6875V36.936H59.7949V31.1641H61.6124L64.0663 36.3843L66.499 31.1641H66.4919Z" fill="#EAEAEA"/>
<path d="M78.127 36.936V31.1641H79.1668V36.936H78.127Z" fill="#EAEAEA"/>
<path d="M94.3916 31.1641H95.3958V36.936H93.6137L89.9717 31.7087V36.936H88.9746V31.1641H90.7496L94.3916 36.3914V31.1641Z" fill="#EAEAEA"/>
<path d="M110.813 36.936L110.134 35.5426H106.308L105.629 36.936H104.59L107.44 31.1641H109.017L111.881 36.936H110.806H110.813ZM106.697 34.7503H109.745L108.218 31.6097L106.69 34.7503H106.697Z" fill="#EAEAEA"/>
<path d="M121.072 36.936V31.1641H122.112V36.0872H126.051V36.936H121.072Z" fill="#EAEAEA"/>
</svg>
