<svg width="39" height="39" viewBox="0 0 39 39" fill="none" xmlns="http://www.w3.org/2000/svg">
<path d="M0 15.0036C0 6.71736 6.71735 0 15.0036 0H23.526C31.8122 0 38.5296 6.71735 38.5296 15.0036V23.526C38.5296 31.8122 31.8122 38.5296 23.526 38.5296H15.0036C6.71736 38.5296 0 31.8122 0 23.526V15.0036Z" fill="url(#paint0_linear_5002_480)"/>
<path d="M20.7511 14.8631V17.1189H23.718L23.2482 20.1575H20.7511V27.1584C20.2505 27.2237 19.7383 27.2578 19.2184 27.2578C18.6182 27.2578 18.0289 27.2128 17.4549 27.1258V20.1575H14.7188V17.1189H17.4549V14.3588C17.4549 12.6465 18.9306 11.2578 20.7519 11.2578V11.2593C20.7573 11.2593 20.7619 11.2578 20.7673 11.2578H23.7188V13.8858H21.7902C21.2171 13.8858 20.7519 14.3233 20.7519 14.8624L20.7511 14.8631Z" fill="white"/>
<defs>
<linearGradient id="paint0_linear_5002_480" x1="-42.7812" y1="49.2588" x2="43.3718" y2="43.1118" gradientUnits="userSpaceOnUse">
<stop offset="0.314961" stop-opacity="0"/>
<stop offset="0.74008" stop-color="#54D588" stop-opacity="0.5"/>
<stop offset="0.99" stop-color="#009597"/>
</linearGradient>
</defs>
</svg>
