<svg width="18" height="20" viewBox="0 0 18 20" fill="none" xmlns="http://www.w3.org/2000/svg">
<g filter="url(#filter0_n_5004_266)">
<path d="M15.2002 0C16.3002 0 17.2002 0.900977 17.2002 2.00098V4.2002C17.2002 5.0002 16.7002 6.00098 16.2002 6.50098L11.9004 10.3008C11.3005 10.8008 10.9004 11.8007 10.9004 12.6006V16.9004C10.9004 17.5004 10.5 18.3006 10 18.6006L8.60059 19.501C7.30068 20.3008 5.50022 19.4005 5.5 17.8008V12.501C5.5 11.801 5.1002 10.9004 4.7002 10.4004L4.23047 9.91016C3.92062 9.58016 3.86041 9.08036 4.11035 8.69043L9.23047 0.470703C9.4104 0.180812 9.73023 0.000134593 10.0801 0H15.2002ZM6.09961 0C6.87951 0 7.35993 0.860309 6.9502 1.53027L3.40039 7.2207C3.06045 7.77061 2.28011 7.8506 1.83008 7.38086L0.900391 6.40039C0.400391 5.90039 0 5.00039 0 4.40039V2.10059C0 0.900586 0.9 0 2 0H6.09961Z" fill="url(#paint0_linear_5004_266)"/>
</g>
<defs>
<filter id="filter0_n_5004_266" x="0" y="0" width="17.1992" height="19.7979" filterUnits="userSpaceOnUse" color-interpolation-filters="sRGB">
<feFlood flood-opacity="0" result="BackgroundImageFix"/>
<feBlend mode="normal" in="SourceGraphic" in2="BackgroundImageFix" result="shape"/>
<feTurbulence type="fractalNoise" baseFrequency="10 10" stitchTiles="stitch" numOctaves="3" result="noise" seed="5351" />
<feColorMatrix in="noise" type="luminanceToAlpha" result="alphaNoise" />
<feComponentTransfer in="alphaNoise" result="coloredNoise1">
<feFuncA type="discrete" tableValues="1 1 1 1 1 1 1 1 1 1 1 1 1 1 1 1 1 1 1 1 1 1 1 1 1 1 1 1 1 1 1 1 1 1 1 1 1 1 1 1 1 1 1 1 1 1 1 1 1 1 1 0 0 0 0 0 0 0 0 0 0 0 0 0 0 0 0 0 0 0 0 0 0 0 0 0 0 0 0 0 0 0 0 0 0 0 0 0 0 0 0 0 0 0 0 0 0 0 0 0 "/>
</feComponentTransfer>
<feComposite operator="in" in2="shape" in="coloredNoise1" result="noise1Clipped" />
<feFlood flood-color="rgba(0, 0, 0, 0.25)" result="color1Flood" />
<feComposite operator="in" in2="noise1Clipped" in="color1Flood" result="color1" />
<feMerge result="effect1_noise_5004_266">
<feMergeNode in="shape" />
<feMergeNode in="color1" />
</feMerge>
</filter>
<linearGradient id="paint0_linear_5004_266" x1="-5.84689" y1="24.4964" x2="14.5301" y2="25.0641" gradientUnits="userSpaceOnUse">
<stop stop-color="#4E0C00"/>
<stop offset="1" stop-color="#FA4E30"/>
</linearGradient>
</defs>
</svg>
