<svg width="31" height="31" viewBox="0 0 31 31" fill="none" xmlns="http://www.w3.org/2000/svg">
<path d="M28.2567 28.2203C27.7214 25.8306 26.0878 20.9442 21.2411 16.4171C21.097 16.2825 21.0795 16.059 21.2053 15.907C21.6619 15.3552 22.6789 14.0031 23.1312 12.4191C23.3966 11.4896 23.3615 10.4996 23.0747 9.57666C22.5087 7.75493 20.9422 3.88668 17.4136 1.8279C16.1868 1.11206 14.6822 1.11206 13.4554 1.8279C9.92688 3.88662 8.36033 7.75486 7.79426 9.57659C7.50743 10.4995 7.47227 11.4896 7.73768 12.4191C8.19006 14.0031 9.20712 15.3552 9.6637 15.907C9.78947 16.059 9.77193 16.2825 9.62791 16.4171C4.78143 20.944 3.14778 25.8301 2.61231 28.2201C2.44136 28.9829 3.01598 29.7077 3.79021 29.7077H15.4345H27.0788C27.8528 29.7077 28.4276 28.9831 28.2567 28.2203Z" fill="url(#paint0_linear_3912_1628)"/>
<path d="M19.6196 9.01996C17.6321 8.69384 15.4487 8.71818 15.4487 8.71818C15.4487 8.71818 13.2652 8.69384 11.2776 9.02003C9.45146 9.3197 8.42438 11.3233 9.21888 13.0114C9.22801 13.0308 9.23728 13.0503 9.24668 13.0698C9.24668 13.0698 9.89675 14.5476 12.3752 16.5593C12.3752 16.5593 13.9437 17.8168 14.8644 19.185C15.1437 19.6001 15.7534 19.6001 16.0326 19.185C16.9533 17.8168 18.5219 16.5593 18.5219 16.5593C21.0004 14.5476 21.6505 13.0698 21.6505 13.0698C21.6643 13.0411 21.6779 13.0125 21.691 12.9843C22.4775 11.2961 21.4421 9.31907 19.6196 9.01996Z" fill="#242322"/>
<path d="M15.4215 20.543H7.40923C6.77585 20.543 6.30579 21.1003 6.44425 21.687L8.18211 29.0501C8.27342 29.4369 8.6013 29.7082 8.97747 29.7082H15.4215H21.8654C22.2417 29.7082 22.5695 29.4369 22.6608 29.0501L24.3988 21.687C24.5372 21.1003 24.0671 20.543 23.4338 20.543H15.4215Z" fill="url(#paint1_linear_3912_1628)"/>
<defs>
<linearGradient id="paint0_linear_3912_1628" x1="15.4345" y1="29.7093" x2="15.4345" y2="1.29102" gradientUnits="userSpaceOnUse">
<stop stop-color="#FF5135"/>
<stop offset="1" stop-color="#AF3622"/>
</linearGradient>
<linearGradient id="paint1_linear_3912_1628" x1="15.4215" y1="29.7082" x2="15.4215" y2="20.543" gradientUnits="userSpaceOnUse">
<stop stop-color="#ADDCFF"/>
<stop offset="0.5" stop-color="#EAF6FF"/>
<stop offset="1" stop-color="#EAF6FF"/>
</linearGradient>
</defs>
</svg>
