<svg width="40" height="39" viewBox="0 0 40 39" fill="none" xmlns="http://www.w3.org/2000/svg">
<path d="M0.71875 15.0036C0.71875 6.71736 7.4361 0 15.7224 0H24.2447C32.531 0 39.2483 6.71735 39.2483 15.0036V23.526C39.2483 31.8122 32.531 38.5296 24.2447 38.5296H15.7224C7.43611 38.5296 0.71875 31.8122 0.71875 23.526V15.0036Z" fill="url(#paint0_linear_5002_482)"/>
<path d="M24.3464 10.8945H15.6195C13.2085 10.8945 11.2471 12.8565 11.2471 15.2682V23.2544C11.2471 25.6661 13.2085 27.628 15.6195 27.628H24.3464C26.7574 27.628 28.7188 25.6661 28.7188 23.2544V15.2682C28.7188 12.8565 26.7574 10.8945 24.3464 10.8945ZM12.7895 15.2682C12.7895 13.7075 14.0592 12.4374 15.6195 12.4374H24.3464C25.9066 12.4374 27.1763 13.7075 27.1763 15.2682V23.2544C27.1763 24.8151 25.9066 26.0852 24.3464 26.0852H15.6195C14.0592 26.0852 12.7895 24.8151 12.7895 23.2544V15.2682Z" fill="white"/>
<path d="M19.9827 23.3298C22.2247 23.3298 24.0497 21.5052 24.0497 19.2616C24.0497 17.0179 22.2257 15.1934 19.9827 15.1934C17.7397 15.1934 15.9156 17.0179 15.9156 19.2616C15.9156 21.5052 17.7397 23.3298 19.9827 23.3298ZM19.9827 16.7372C21.3749 16.7372 22.5073 17.8699 22.5073 19.2626C22.5073 20.6552 21.3749 21.7879 19.9827 21.7879C18.5905 21.7879 17.4581 20.6552 17.4581 19.2626C17.4581 17.8699 18.5905 16.7372 19.9827 16.7372Z" fill="white"/>
<path d="M24.4273 15.8505C25.031 15.8505 25.5231 15.3592 25.5231 14.7543C25.5231 14.1494 25.032 13.6582 24.4273 13.6582C23.8225 13.6582 23.3315 14.1494 23.3315 14.7543C23.3315 15.3592 23.8225 15.8505 24.4273 15.8505Z" fill="white"/>
<defs>
<linearGradient id="paint0_linear_5002_482" x1="-42.0625" y1="49.2588" x2="44.0906" y2="43.1118" gradientUnits="userSpaceOnUse">
<stop offset="0.314961" stop-opacity="0"/>
<stop offset="0.74008" stop-color="#54D588" stop-opacity="0.5"/>
<stop offset="0.99" stop-color="#009597"/>
</linearGradient>
</defs>
</svg>
