<svg width="140" height="59" viewBox="0 0 140 59" fill="none" xmlns="http://www.w3.org/2000/svg">
<g clip-path="url(#clip0_2864_145)">
<path d="M129.023 0.400908L21.7102 6.05677C19.2598 6.18592 17.0557 7.58397 15.8706 9.75039C11.7343 17.3113 6.97453 24.5673 2.54066 31.9819C1.7747 33.2624 1.46084 34.6409 1.51711 35.9703C1.66988 39.524 4.47427 42.7394 8.43006 42.8531C49.0434 44.0097 90.8986 45.78 131.427 46.8957C135.617 47.0109 138.985 43.4564 138.697 39.2375C137.961 28.5161 137.225 17.7948 136.491 7.07334C136.221 3.16702 132.898 0.196669 129.023 0.400908Z" fill="#00CFFF"/>
<path d="M22.8717 27.5613L22.8873 27.5613C23.2453 27.5298 25.2377 27.4501 25.2377 27.4501L25.4245 27.4499C25.4245 27.4499 25.5031 28.2126 25.5031 28.2281C25.488 28.6796 25.4578 29.7226 25.4578 29.7226C25.4578 29.7226 23.123 29.8493 22.08 29.7881C21.8309 29.7883 21.4885 29.7887 21.2861 29.7733C21.2549 29.7577 20.4767 29.8052 20.4767 29.8052C20.4767 29.8052 20.4294 29.1826 20.4131 28.4198C20.3975 28.3732 20.4899 27.4235 20.5362 26.9253C20.5517 26.8631 20.4254 25.0731 20.4254 25.0264C20.4405 24.606 20.4535 21.913 20.4535 21.8663C20.4995 21.1969 20.5145 20.6521 20.5141 20.154C20.514 20.0917 20.466 18.7375 20.466 18.7375L20.7151 18.7372L23.0032 18.6261C23.0032 18.6261 23.0037 19.1398 23.0354 19.7001C23.0354 19.7157 22.9587 20.8521 22.9125 21.4125C22.9126 21.4592 23.0071 22.6889 23.0072 22.7667C22.9611 23.3427 22.946 23.8876 22.9466 24.4324C22.947 24.9461 22.9475 25.4598 22.9791 25.8956C22.9947 25.9734 22.9027 27.3589 22.8717 27.5613ZM29.3686 23.6168C29.291 23.8815 29.2602 24.1617 29.1826 24.442C29.1826 24.4731 29.1671 24.5042 29.1671 24.5354C29.0119 25.0025 28.8411 25.4385 28.7325 25.7655C28.6859 25.9524 28.6394 26.0925 28.6239 26.1859C28.7484 26.1858 28.9819 26.17 29.231 26.1387C29.2777 26.1386 29.3088 26.1386 29.3555 26.1385C29.7135 26.1226 30.1338 26.1533 30.4451 26.1375C30.6008 26.1373 30.7409 26.1216 30.8343 26.1215C30.7875 26.0282 30.7251 25.8726 30.6626 25.6858C30.6314 25.608 30.6002 25.5302 30.569 25.4524C30.3035 24.581 29.7099 22.4334 29.7099 22.4334C29.7099 22.4334 29.4461 23.2742 29.3686 23.6168ZM26.785 24.024C26.8005 23.9773 27.2036 22.3113 27.2191 22.2334C27.4364 21.5794 27.7472 20.9876 27.9335 20.4893C27.9646 20.427 28.2591 19.197 28.2591 19.197C28.2591 19.197 28.9908 19.1807 29.5511 19.1802C30.2983 19.1639 30.9832 19.1632 30.9832 19.1632C30.9832 19.1632 31.4669 20.268 31.4825 20.3146C31.5761 20.5169 31.7319 20.7191 31.8256 20.9681C31.8568 21.0615 31.8725 21.1704 31.9037 21.2794C32.0599 21.8863 32.2474 22.5866 32.4349 23.3025C32.4505 23.3647 32.9498 24.5473 33.1059 24.983C33.3713 25.7922 33.6215 27.0373 33.6216 27.0684C33.6996 27.3174 34.418 29.7295 34.418 29.7295L31.6472 29.6855C31.6472 29.6855 31.4281 28.5493 31.3655 28.1291C31.3655 28.1291 30.2134 28.0212 30.1512 28.0213C29.4196 28.0531 28.6102 28.0851 28.2366 28.0854L28.0047 29.7512L25.4362 29.707L25.5283 28.3994C25.5283 28.3994 25.8076 27.4807 25.8232 27.4339C25.9316 26.8735 26.0088 26.2196 26.0552 25.9082C26.0551 25.8771 26.4589 24.8337 26.785 24.024ZM36.992 19.064C36.992 19.064 36.9466 20.3872 36.9792 21.866C36.9792 21.9594 36.8409 23.7497 36.7949 24.528C36.795 24.5903 36.8743 26.0846 36.89 26.3181C36.9379 27.5322 38.5257 27.5618 38.6336 26.4876C38.6491 26.3164 38.6017 25.6471 38.5859 25.4292C38.5856 25.04 38.6631 24.7909 38.6934 23.9035C38.7394 23.1407 38.5985 22.3159 38.6756 21.5375C38.6755 21.4596 38.6108 18.9535 38.6108 18.9535C38.6108 18.9535 39.1556 18.9218 39.5136 18.9215C40.1519 18.9053 41.1326 18.9666 41.1326 18.9666C41.1326 18.9666 41.1182 20.212 41.1183 20.2742C41.1346 21.0525 41.151 21.9087 41.1522 23.154C41.1523 23.2318 41.0914 24.664 41.0914 24.7107C41.0921 25.3956 41.2015 25.8469 41.1709 26.3918C41.1558 26.8899 41.2972 28.1974 40.3484 29.07C39.9441 29.4284 39.4461 29.5534 38.9013 29.6473C38.5901 29.7099 37.8273 29.7573 37.4693 29.7733C36.8 29.7895 35.7723 29.4791 35.3672 29.1215C34.8687 28.6705 34.5412 28.0482 34.3693 27.379C34.2598 26.8654 34.2432 25.7758 34.1955 24.7485C34.1799 24.6395 34.333 22.0398 34.333 21.9619C34.347 20.4208 34.2368 19.0511 34.2368 19.0511L36.992 19.064ZM46.7916 23.1485C46.7603 22.9462 46.7445 22.7283 46.7443 22.5415C46.6965 21.3896 46.7882 19.6305 46.7882 19.5683C46.7723 19.257 46.772 18.9301 46.772 18.9301L48.8111 18.8347L49.2158 18.8343C49.2158 18.8343 49.2806 21.4494 49.2808 21.6206C49.2813 22.1188 49.2039 22.6637 49.2045 23.2241C49.2046 23.3486 49.3469 25.6367 49.347 25.7768C49.3475 26.2905 49.3947 26.7263 49.364 27.1778C49.364 27.1933 49.3963 28.4698 49.4122 28.8278C49.4282 29.2169 49.3819 29.6217 49.3819 29.6217C49.3819 29.6217 47.9186 29.5764 47.3893 29.5613C47.3582 29.5614 46.9068 29.5774 46.9068 29.5774C46.9068 29.5774 46.8903 28.659 46.8903 28.6434C46.9056 28.3632 46.8742 28.0363 46.9049 27.6627C46.7958 27.5383 45.9382 25.9513 45.9226 25.9202C45.6576 25.5469 45.4082 25.1891 45.1587 24.7379C44.9871 24.4112 44.8155 24.0377 44.6751 23.6954C44.6595 23.6799 44.4413 23.3532 44.3478 23.2443C44.3479 23.3221 44.3483 23.7424 44.3484 23.8825C44.349 24.474 44.3651 25.0656 44.3812 25.6415C44.3814 25.7816 44.3815 25.9061 44.3816 26.0462C44.351 26.5755 44.3047 27.0114 44.2584 27.4629C44.2585 27.494 44.2908 28.7549 44.2756 29.1129C44.276 29.5021 44.2141 29.9069 44.2141 29.9069L43.7315 29.9073L41.8012 29.7691L41.8011 29.6601C41.8011 29.6601 41.8922 27.3406 41.8922 27.3095C41.8762 26.8114 41.8594 25.5505 41.8593 25.5038C41.9212 25.099 41.9986 24.6631 42.0138 24.2428C42.0289 23.7291 42.0128 23.2154 42.0123 22.7173C42.0268 21.5809 42.1037 20.5846 42.1497 19.9463C42.1497 19.8685 42.1645 19.1369 42.1645 19.1369L44.2192 19.0726L44.4839 19.0879C44.4839 19.0879 45.0919 20.068 45.7467 21.1259C45.7623 21.1415 46.1212 22.0284 46.3083 22.3707C46.4487 22.6352 46.6201 22.8997 46.7916 23.1485ZM56.1668 22.6725C56.1668 22.6725 55.6366 21.7391 55.4185 21.568C55.1225 21.3193 54.7799 21.2106 54.4531 21.2109C54.1106 21.2268 53.0368 21.5548 52.6799 22.6448C52.4936 23.2053 52.4631 23.8591 52.4948 24.4973C52.4644 25.1667 52.5116 25.6959 52.7299 26.1004C53.0105 26.5827 53.7425 26.9089 54.1473 27.0019C55.2216 27.25 56.1079 26.2529 56.1855 25.9259L58.4748 27.0133L58.4282 27.0912C58.3817 27.3248 58.3196 27.5583 58.1797 27.7764C57.9 28.2281 57.4022 28.6021 56.8577 28.8984C56.3598 29.1791 55.4884 29.4913 54.3988 29.5702C53.9474 29.6017 53.4649 29.6022 52.9355 29.447C52.3594 29.2919 51.892 28.9499 51.5025 28.5767C51.2844 28.359 51.0973 28.1101 50.9103 27.8456C50.5206 27.3012 50.162 26.6789 49.9589 25.9475C49.9433 25.8696 49.9121 25.7918 49.8964 25.6985C49.8338 25.3716 49.8335 25.0292 49.8487 24.6867C49.8483 24.282 50.003 23.2077 50.0029 23.161C50.111 22.2581 50.3437 21.355 50.8411 20.6385C51.0432 20.3269 51.5876 19.8905 51.9921 19.6567C52.0232 19.6411 52.9256 19.1576 53.408 19.0793C53.8749 18.9855 54.7777 18.9068 54.84 18.9067C55.5249 18.9061 56.0699 19.0456 56.5371 19.2943C57.2691 19.6827 57.8146 20.3982 58.345 21.5808L58.4386 21.7675L56.1668 22.6725ZM64.1942 24.6106C64.1942 24.5483 64.2855 22.4001 64.3466 21.2481C64.3466 21.1858 64.2823 19.0689 64.2823 19.0689C64.2823 19.0689 65.3719 19.0211 65.979 19.0205C66.3214 19.0202 66.7885 19.0509 66.7885 19.0509C66.7885 19.0509 66.682 21.6194 66.6976 21.6973C66.7295 22.5223 66.8094 24.6392 66.8095 24.7326C66.7947 25.5265 66.702 26.3049 66.6716 27.021C66.6717 27.0988 66.7679 29.9941 66.7679 29.9941C66.7679 29.9941 65.8027 29.995 65.2112 29.9956C65.1645 29.9956 64.2149 29.9032 64.2149 29.9032C64.2149 29.9032 64.292 29.2026 64.292 29.1559C64.2913 28.4554 64.2591 27.3502 64.2431 26.9144C64.0096 26.9146 63.2002 26.931 62.7488 26.947C62.7021 26.947 61.8459 26.9011 61.5968 26.8858C61.5815 27.1504 61.5509 27.6953 61.5514 28.2401C61.5515 28.2868 61.6308 29.8901 61.6308 29.8901C61.6308 29.8901 60.4479 29.9846 59.7007 30.0009C59.2804 30.0169 58.7356 30.0018 58.7356 30.0018C58.7356 30.0018 58.8735 27.7757 58.8735 27.6979C58.8571 26.8729 58.7939 25.8455 58.8084 24.8337C58.8239 24.7247 58.9935 22.9967 59.0084 22.2962C59.0689 20.506 58.9896 18.9494 58.9896 18.9494C58.9896 18.9494 59.5967 18.98 59.9392 18.9796C60.6552 18.979 61.7915 18.9467 61.7915 18.9467C61.7915 18.9467 61.8243 20.6901 61.8102 22.2001C61.8103 22.3091 61.719 24.4106 61.7037 24.722C61.8438 24.7218 62.2485 24.7214 62.3108 24.7214C62.8556 24.6897 63.8673 24.6265 64.1942 24.6106ZM74.6861 19.557C74.9974 19.5722 76.6319 19.5084 76.6319 19.5084L76.603 21.9057C76.603 21.9057 75.2644 21.9692 74.7974 22.0008C74.7352 22.0164 73.6455 21.9863 73.3964 21.971L73.3818 22.9361C73.4285 22.9361 75.8723 22.7936 75.8723 22.7936L75.8268 24.039L75.7812 25.2065C75.7812 25.2065 74.7693 25.1608 74.7071 25.1609C74.2556 25.1613 73.7575 25.1773 73.4929 25.1932C73.5086 25.3644 73.5713 25.769 73.5714 25.8313C73.5719 26.3761 73.4947 26.9989 73.4947 27.0456C73.8994 27.0452 74.4287 27.1069 75.1448 27.0907C75.2226 27.0906 76.4211 26.9805 76.4678 26.996C76.5301 26.9959 76.7948 27.0268 76.7948 27.0268L76.8127 29.5174C76.8127 29.5174 74.8203 29.5505 74.7269 29.5506C73.9174 29.5202 73.0144 29.381 72.3139 29.3661C71.6289 29.3512 70.9596 29.3985 70.9596 29.3985C70.9596 29.3985 70.8812 28.7604 70.896 27.9665C70.8955 27.4684 71.0499 26.1451 71.0499 26.1139C71.0498 26.0828 70.9239 24.5885 70.9387 23.8569C70.9535 23.0319 71.1232 21.3972 71.1231 21.3194C71.123 21.2571 70.9968 19.5294 70.9968 19.5294C70.9968 19.5294 73.3785 19.5271 74.6861 19.557ZM80.9791 21.4033C81.0724 21.2631 81.3365 20.6558 81.4297 20.5312C81.4297 20.5 81.756 19.8615 81.9269 19.5189C82.1289 19.1451 82.5175 18.5532 82.5175 18.5532L84.7909 19.267C84.7909 19.267 84.6512 19.6875 84.3871 20.217C84.2006 20.6063 83.5012 21.6655 83.4701 21.7122C83.2526 22.195 82.7089 23.3474 82.6778 23.3786C82.5535 23.5811 82.4136 23.7992 82.2737 24.0017C82.5231 24.4217 82.7881 24.8262 83.022 25.2307C83.0688 25.2773 83.6614 26.4442 83.8486 26.8488C83.8642 26.8955 84.5502 28.0312 84.7374 28.3579C84.8777 28.6068 85.0337 28.9647 85.0337 28.9647L82.8555 30.0564C82.8555 30.0564 81.8733 28.563 81.8577 28.5319C81.655 28.1585 81.2181 27.0537 81.1869 27.007C81.1245 26.8826 81.0466 26.7737 80.9686 26.6492C80.4869 27.537 79.9895 28.2691 79.6942 28.783C79.6632 28.8298 78.9016 30.1069 78.9016 30.1069L76.8926 29.1438C76.8926 29.1438 77.2188 28.3963 77.7936 27.1971C77.8713 27.0413 78.1199 26.543 78.2131 26.3872C78.4929 25.9044 78.866 25.4215 79.1612 24.8919C79.2389 24.7673 79.5962 24.0042 79.5962 24.0042C79.5806 23.9731 78.9102 22.8218 78.879 22.7596C78.8166 22.6351 78.4269 22.044 78.3645 21.9195C77.881 20.9082 77.4753 19.959 77.4597 19.9123C77.2882 19.6167 77.1011 19.3056 77.1011 19.3056L79.2952 18.5096L79.685 19.1941C79.685 19.1941 79.9345 19.5986 80.7296 20.9521C80.7608 20.9988 80.9791 21.4033 80.9791 21.4033ZM88.0097 20.6649C87.9946 21.1319 87.9801 22.206 87.9647 22.4551C87.9649 22.5952 87.9494 22.7353 87.9341 22.9377C87.9342 23.0311 87.9196 24.0585 87.9198 24.2608C88.1066 24.2607 88.4802 24.2759 88.8693 24.1821C88.9626 24.1664 89.3828 24.0104 89.4761 23.9636C89.8495 23.7453 90.1449 23.3403 90.1753 22.6242C90.1751 22.344 90.1281 22.095 90.1124 21.8926C90.0652 21.4568 89.6447 21.1459 89.5356 21.0682C89.411 20.9905 88.9127 20.8353 88.8972 20.8197C88.5546 20.6955 88.2276 20.6647 88.0097 20.6649ZM89.1752 18.5623C89.5177 18.6087 90.2339 18.8104 90.5921 18.9813C90.888 19.1211 91.4644 19.5564 91.4955 19.5719C91.7915 19.7896 92.3994 20.614 92.4624 21.33C92.4938 21.688 92.5409 22.0927 92.5258 22.513C92.5258 22.5441 92.5738 23.9139 92.3564 24.4745C92.2322 24.7548 92.0456 24.9885 91.8279 25.2222C91.6257 25.4248 90.9723 25.8457 90.9101 25.8769C90.4434 26.1575 89.8521 26.4072 89.0739 26.5324C89.0272 26.548 88.2333 26.5644 87.8441 26.5336C87.8286 26.5803 87.8601 26.9539 87.8602 27.0162C87.8452 27.5921 87.8927 28.4327 87.8933 29.0398C87.8933 29.0865 87.8785 29.8959 87.8785 29.8959L85.5436 29.9137L85.3256 29.914C85.3256 29.914 85.401 27.3921 85.4009 27.2832C85.4009 27.252 85.3525 25.4464 85.368 25.4152C85.3987 24.9949 85.287 22.1308 85.3025 22.0996C85.364 21.2901 85.3633 20.5429 85.3629 20.1071C85.3626 19.7957 85.3459 18.6127 85.3459 18.6127C85.3459 18.6127 87.7118 18.3925 89.1752 18.5623ZM95.4288 27.4914L95.4444 27.4914C95.8024 27.4599 97.7948 27.3802 97.7948 27.3802L97.9816 27.38C97.9816 27.38 98.0602 28.1427 98.0602 28.1582C98.0451 28.6097 98.0149 29.6527 98.0149 29.6527C98.0149 29.6527 95.6801 29.7794 94.6371 29.7182C94.388 29.7184 94.0456 29.7188 93.8432 29.7034C93.812 29.6879 93.0338 29.7353 93.0338 29.7353C93.0338 29.7353 92.9865 29.1127 92.9702 28.3499C92.9545 28.3033 93.047 27.3536 93.0933 26.8555C93.1088 26.7932 92.9825 25.0032 92.9825 24.9565C92.9976 24.5361 93.0106 21.8431 93.0105 21.7964C93.0566 21.127 93.0716 20.5822 93.0712 20.0841C93.0711 20.0218 93.0231 18.6676 93.0231 18.6676L93.2722 18.6673L95.5603 18.5562C95.5603 18.5562 95.5608 19.0699 95.5925 19.6302C95.5925 19.6458 95.5158 20.7822 95.4696 21.3427C95.4696 21.3894 95.5642 22.619 95.5643 22.6968C95.5182 23.2728 95.5031 23.8177 95.5036 24.3625C95.5041 24.8762 95.5046 25.3899 95.5362 25.8257C95.5518 25.9035 95.4598 27.289 95.4288 27.4914ZM100.363 24.1866C100.348 24.4668 100.457 24.887 100.582 25.3539C100.692 25.7429 101.206 26.3495 101.253 26.3806C101.627 26.6916 102.125 26.8623 102.748 26.8929C103.183 26.908 104.273 26.6423 104.506 26.4553C104.631 26.3773 104.708 26.2683 104.802 26.1593C105.19 25.6608 105.33 25.0224 105.345 24.4464C105.345 24.3219 105.328 23.2945 105.188 22.9211C105.172 22.8744 104.579 21.6608 103.521 21.3816C103.412 21.3506 103.038 21.3042 102.976 21.2887C102.306 21.2582 101.762 21.4611 101.342 21.804C101.233 21.8975 100.86 22.3648 100.782 22.4894C100.44 23.128 100.332 23.813 100.363 24.1866ZM100.212 28.7477C99.8536 28.4212 98.997 27.9394 98.4201 26.9282C98.1862 26.5392 97.8269 25.2476 97.7795 24.4693C97.6847 23.0684 97.9484 22.0408 98.3212 21.2776C98.8806 20.2341 100.374 19.47 100.872 19.2827C101.572 19.0485 102.444 18.9698 103.285 19.0002C103.378 19.0001 104.951 19.2009 105.574 19.5739C106.321 20.0091 106.882 20.5845 107.272 21.2846C107.631 21.9069 107.834 22.6539 107.85 23.619C107.85 23.6501 107.914 25.1756 107.821 25.6894C107.759 26.1408 107.604 26.5146 107.449 26.8416C106.936 27.9162 106.174 28.4929 105.271 28.8829C105.038 28.9765 103.84 29.4136 102.75 29.4146C101.769 29.4156 100.819 29.1985 100.212 28.7477ZM110.821 20.4561C110.868 20.8141 110.9 21.499 110.916 21.9193C110.932 22.3084 110.87 22.8222 110.902 23.3981C110.902 23.3981 112.832 23.5519 112.831 21.8708C112.83 21.3726 112.705 21.0459 112.409 20.7815C111.817 20.284 110.821 20.4561 110.821 20.4561ZM110.92 25.7331L110.904 25.7486C110.904 25.8109 110.967 26.5113 110.967 26.5892C110.937 27.352 111.031 28.208 111.016 28.7996C111.016 28.8307 110.97 29.5001 110.97 29.5001L108.729 29.6112L108.464 29.5959C108.464 29.5959 108.447 28.0081 108.493 27.4477C108.493 27.3699 108.398 25.4709 108.398 25.4242C108.382 24.9572 108.428 24.4902 108.459 24.0387C108.459 23.992 108.348 22.0619 108.363 21.9996C108.378 21.2057 108.44 20.5674 108.424 20.1471C108.423 19.8514 108.391 18.6683 108.391 18.6683C108.391 18.6683 109.636 18.6049 110.384 18.5419C110.928 18.5102 111.535 18.5252 112.127 18.5402C112.594 18.5398 113.217 18.7882 113.559 18.9591C113.809 19.0834 113.996 19.2545 114.214 19.3944C114.93 19.8295 115.32 20.9344 115.321 21.4014C115.337 21.7594 115.29 22.0707 115.275 22.3665C115.198 23.1138 115.074 23.4875 114.732 23.9393C114.374 24.4222 113.254 24.9214 113.223 24.9214C113.223 24.9214 114.423 26.7726 114.75 27.0992C114.782 27.1148 115.234 27.6747 115.358 27.8614C115.374 27.8925 115.919 28.4679 115.919 28.4679C115.919 28.4679 115.701 28.7016 115.515 28.8575C115.173 29.138 114.55 29.4811 114.286 29.6526C114.239 29.6837 114.068 29.7929 114.068 29.7929C114.068 29.7929 113.538 29.2953 113.523 29.2641C113.398 29.0619 112.665 28.0663 112.447 27.8486C112.432 27.8175 110.92 25.7331 110.92 25.7331ZM119.987 19.5133C120.298 19.5286 121.933 19.4648 121.933 19.4648L121.904 21.862C121.904 21.862 120.565 21.9256 120.098 21.9571C120.036 21.9728 118.946 21.9427 118.697 21.9274L118.682 22.8925C118.729 22.8925 121.173 22.75 121.173 22.75L121.127 23.9954L121.082 25.1629C121.082 25.1629 120.07 25.1172 120.008 25.1172C119.556 25.1177 119.058 25.1337 118.794 25.1495C118.809 25.3207 118.872 25.7254 118.872 25.7877C118.873 26.3325 118.795 26.9552 118.795 27.0019C119.2 27.0015 119.729 27.0633 120.445 27.047C120.523 27.047 121.722 26.9368 121.769 26.9524C121.831 26.9523 122.095 26.9832 122.095 26.9832L122.113 29.4738C122.113 29.4738 120.121 29.5068 120.028 29.5069C119.218 29.4766 118.315 29.3374 117.615 29.3225C116.93 29.3076 116.26 29.3549 116.26 29.3549C116.26 29.3549 116.182 28.7167 116.197 27.9228C116.196 27.4247 116.351 26.1014 116.351 26.0703C116.351 26.0392 116.225 24.5449 116.239 23.8133C116.254 22.9882 116.424 21.3536 116.424 21.2758C116.424 21.2135 116.298 19.4857 116.298 19.4857C116.298 19.4857 118.679 19.4835 119.987 19.5133ZM125.08 20.4424C125.127 20.8004 125.159 21.4853 125.175 21.9056C125.191 22.2947 125.129 22.8085 125.161 23.3844C125.161 23.3844 127.091 23.5382 127.09 21.857C127.089 21.3589 126.964 21.0321 126.668 20.7678C126.076 20.2702 125.08 20.4424 125.08 20.4424ZM125.179 25.7193L125.163 25.7349C125.163 25.7972 125.226 26.4976 125.226 26.5754C125.196 27.3382 125.29 28.1943 125.275 28.7858C125.275 28.817 125.229 29.4864 125.229 29.4864L122.988 29.5975L122.723 29.5822C122.723 29.5822 122.706 27.9944 122.752 27.434C122.752 27.3561 122.657 25.4571 122.657 25.4104C122.641 24.9435 122.687 24.4764 122.718 24.025C122.718 23.9783 122.607 22.0481 122.622 21.9859C122.637 21.1919 122.699 20.5537 122.683 20.1334C122.683 19.8376 122.65 18.6546 122.65 18.6546C122.65 18.6546 123.895 18.5911 124.643 18.5282C125.187 18.4965 125.795 18.5115 126.386 18.5265C126.853 18.526 127.476 18.7745 127.819 18.9454C128.068 19.0697 128.255 19.2407 128.473 19.3806C129.189 19.8158 129.579 20.9206 129.58 21.3876C129.596 21.7456 129.549 22.057 129.534 22.3528C129.457 23.1 129.333 23.4738 128.991 23.9255C128.633 24.4084 127.513 24.9076 127.482 24.9077C127.482 24.9077 128.682 26.7589 129.009 27.0855C129.041 27.101 129.493 27.661 129.617 27.8477C129.633 27.8788 130.178 28.4542 130.178 28.4542C130.178 28.4542 129.961 28.6879 129.774 28.8438C129.432 29.1243 128.809 29.4673 128.545 29.6388C128.498 29.67 128.327 29.7791 128.327 29.7791C128.327 29.7791 127.797 29.2815 127.782 29.2504C127.657 29.0482 126.924 28.0526 126.706 27.8349C126.691 27.8038 125.179 25.7193 125.179 25.7193Z" fill="black"/>
</g>
<defs>
<clipPath id="clip0_2864_145">
<rect width="136.818" height="51.1468" fill="white" transform="matrix(-0.998614 0.0526314 0.0526314 0.998614 136.628 0)"/>
</clipPath>
</defs>
</svg>
