<svg width="39" height="39" viewBox="0 0 39 39" fill="none" xmlns="http://www.w3.org/2000/svg">
<path d="M0.15625 15.0036C0.15625 6.71736 6.8736 0 15.1599 0H23.6822C31.9685 0 38.6858 6.71735 38.6858 15.0036V23.526C38.6858 31.8122 31.9685 38.5296 23.6822 38.5296H15.1599C6.87361 38.5296 0.15625 31.8122 0.15625 23.526V15.0036Z" fill="url(#paint0_linear_5002_489)"/>
<path d="M11.7043 13.3152C11.3156 12.9542 11.1223 12.5075 11.1223 11.976C11.1223 11.4444 11.3166 10.978 11.7043 10.6161C12.093 10.2552 12.5934 10.0742 13.2065 10.0742C13.8195 10.0742 14.3002 10.2552 14.6879 10.6161C15.0766 10.977 15.2699 11.431 15.2699 11.976C15.2699 12.521 15.0756 12.9542 14.6879 13.3152C14.2992 13.6761 13.8061 13.857 13.2065 13.857C12.6068 13.857 12.093 13.6761 11.7043 13.3152ZM14.9433 15.3855V26.4505H11.4479V15.3855H14.9433Z" fill="white"/>
<path d="M26.5764 16.4792C27.3383 17.3065 27.7188 18.442 27.7188 19.8877V26.2558H24.3992V20.3365C24.3992 19.6074 24.21 19.0407 23.8327 18.6374C23.4553 18.2341 22.9467 18.0314 22.3099 18.0314C21.673 18.0314 21.1644 18.2331 20.787 18.6374C20.4097 19.0407 20.2205 19.6074 20.2205 20.3365V26.2558H16.8813V15.3551H20.2205V16.8008C20.5586 16.3189 21.0145 15.9384 21.5872 15.6581C22.16 15.3779 22.804 15.2383 23.5204 15.2383C24.7962 15.2383 25.8155 15.6519 26.5764 16.4792Z" fill="white"/>
<defs>
<linearGradient id="paint0_linear_5002_489" x1="-42.625" y1="49.2588" x2="43.5281" y2="43.1118" gradientUnits="userSpaceOnUse">
<stop offset="0.314961" stop-opacity="0"/>
<stop offset="0.74008" stop-color="#54D588" stop-opacity="0.5"/>
<stop offset="0.99" stop-color="#009597"/>
</linearGradient>
</defs>
</svg>
