<svg width="84" height="48" viewBox="0 0 84 48" fill="none" xmlns="http://www.w3.org/2000/svg">
<path d="M21.6142 0H2.88816C1.84861 0 1 0.848819 1 1.88862V21.9915H21.6142C25.2067 21.9915 28.1486 18.957 28.1486 15.2575V6.73396C28.1486 3.02745 25.2067 0 21.6142 0ZM23.559 15.2575C23.559 16.3539 22.6891 17.2593 21.6213 17.2593H12.3361H5.60373V5.9488C5.60373 5.2839 6.14118 4.74631 6.80593 4.74631H21.6213C22.6891 4.74631 23.559 5.64464 23.559 6.74811V15.2717V15.2575ZM31.4016 2.84354V1.88862C31.4016 0.841745 32.2502 0 33.2897 0H79.2251C80.2717 0 81.1133 0.848819 81.1133 1.88862V2.84354C81.1133 3.89042 80.2646 4.73216 79.2251 4.73216H33.2897C32.2431 4.73216 31.4016 3.88335 31.4016 2.84354ZM83.4116 10.2424V11.7491C83.4116 12.6403 82.6903 13.3618 81.7992 13.3618H33.2897C32.2431 13.3618 31.4016 12.513 31.4016 11.4732V10.5183C31.4016 9.4714 32.2502 8.62966 33.2897 8.62966H81.7992C82.6903 8.62966 83.4116 9.35115 83.4116 10.2424ZM81.1203 19.1479V20.1029C81.1203 21.1497 80.2717 21.9915 79.2322 21.9915H33.2968C32.2502 21.9915 31.4086 21.1427 31.4086 20.1029V19.1479C31.4086 18.1011 32.2573 17.2593 33.2968 17.2593H79.2322C80.2788 17.2593 81.1203 18.1081 81.1203 19.1479Z" fill="white"/>
<path d="M54.5729 28.8435V27.8886C54.5729 26.8488 53.7314 26 52.6848 26H32.7494C31.7099 26 30.8612 26.8417 30.8612 27.8886V28.8435C30.8612 29.8833 31.7028 30.7322 32.7494 30.7322H52.6848C53.7243 30.7322 54.5729 29.8904 54.5729 28.8435Z" fill="white"/>
<path d="M54.5729 46.1029V45.1479C54.5729 44.1081 53.7314 43.2593 52.6848 43.2593H32.7494C31.7099 43.2593 30.8612 44.1011 30.8612 45.1479V46.1029C30.8612 47.1427 31.7028 47.9915 32.7494 47.9915H52.6848C53.7243 47.9915 54.5729 47.1497 54.5729 46.1029Z" fill="white"/>
<path d="M82.1387 46.0958V27.8886H82.1316C82.1316 26.8488 81.2901 26 80.2435 26H79.4302C78.3907 26 77.5421 26.8417 77.5421 27.8886V36.7234C77.5421 38.414 75.4912 39.2557 74.3032 38.0532L62.9105 26.4881C62.9105 26.4881 62.465 26 61.6306 26H59.7424C58.7028 26 57.8542 26.8417 57.8542 27.8886V46.0887C57.8542 47.1285 58.6958 47.9773 59.7424 47.9773H60.5556C61.5952 47.9773 62.4438 47.1356 62.4438 46.0887V37.261C62.4438 35.5704 64.4946 34.7287 65.6827 35.9312L76.3045 46.7112C76.3045 46.7112 77.3936 47.9844 79.0696 47.9844H80.2505C81.2901 47.9844 82.1387 47.1427 82.1387 46.0958Z" fill="white"/>
<path d="M54.5729 37.5439V36.4546H54.58C54.58 35.4502 53.7667 34.6297 52.7555 34.6297H22.9409H10.6077H7.57387C6.71819 34.6297 6.02515 35.3229 6.02515 36.1788V37.7561C6.02515 38.6474 6.74648 39.3689 7.63752 39.3689H8.36592H21.7033C22.17 39.3689 22.5519 39.7509 22.5519 40.2177V41.2575C22.5519 42.361 21.6821 43.2593 20.6142 43.2593H6.53432C6.06758 43.2593 5.65035 43.0613 5.31091 42.7712C5.2119 42.6934 5.13411 42.6086 5.05632 42.5095C4.95732 42.3822 4.85831 42.2478 4.78759 42.0993C4.7593 42.0427 4.74516 41.979 4.72395 41.9224C4.64616 41.7102 4.58958 41.4909 4.58958 41.2575V32.734C4.58958 32.4722 4.64616 32.2176 4.73809 31.9912C4.82295 31.7649 4.95731 31.5598 5.11996 31.3829C5.47355 30.9939 5.96859 30.7392 6.52726 30.7392H20.6072C21.576 30.7392 22.3893 31.489 22.5236 32.451C22.5236 32.451 22.559 33.1089 23.1035 33.1089H26.4767C27.2971 33.1089 27.1273 32.2317 27.1273 32.2317C26.8728 28.7657 24.0441 26.0071 20.6142 26.0071H6.53432C2.94186 26.0071 0 29.0345 0 32.741V41.2646C0 41.6395 0.0495049 42.0002 0.106079 42.361L0.106089 42.361C0.127301 42.5025 0.148513 42.6439 0.176796 42.7783H0.205082C0.876901 45.7492 3.44396 47.9986 6.52726 47.9986H20.6072C24.1996 47.9986 27.1415 44.9711 27.1415 41.2646V41.1939C27.1415 40.1894 27.9547 39.3689 28.966 39.3689H52.7484C53.7526 39.3689 54.5729 38.5554 54.5729 37.5439Z" fill="white"/>
</svg>
