<svg width="365" height="178" viewBox="0 0 365 178" fill="none" xmlns="http://www.w3.org/2000/svg">
<path d="M75 0H341C354.255 0 365 10.7452 365 24V154C365 167.255 354.255 178 341 178H75L0 89L75 0Z" fill="#F6583C"/>
<path d="M153.188 68.1587V46.6444H168.225V129H150.875L127.973 92.3333C121.727 82.54 116.83 74.2891 113.283 67.5803C113.591 76.2169 113.746 89.5187 113.746 107.486V129H98.7087V46.6444H116.059L139.077 83.3112C145.94 94.4153 150.798 102.666 153.651 108.064C153.343 96.5744 153.188 83.2726 153.188 68.1587Z" fill="black"/>
<path d="M238.184 100.199V103.669H193.536C194.075 108.758 195.656 112.614 198.278 115.236C200.977 117.78 204.563 119.053 209.035 119.053C215.667 119.053 220.216 116.199 222.684 110.493H236.68C235.138 116.585 231.899 121.443 226.964 125.067C222.029 128.614 216.014 130.388 208.92 130.388C200.052 130.388 192.88 127.535 187.405 121.829C181.93 116.122 179.193 108.565 179.193 99.1577C179.193 89.75 181.892 82.193 187.29 76.4868C192.765 70.7805 199.897 67.9273 208.688 67.9273C217.71 67.9273 224.882 70.8961 230.202 76.8338C235.523 82.7714 238.184 90.5597 238.184 100.199ZM208.572 79.2628C200.013 79.2628 195.039 84.0052 193.651 93.4899H223.609C222.992 89.0946 221.373 85.6245 218.751 83.0798C216.129 80.5351 212.737 79.2628 208.572 79.2628Z" fill="black"/>
<path d="M312.786 91.6393L319.494 69.3153H335.11L315.446 129H300.178L292.659 104.478C289.806 94.4538 288.11 88.5162 287.57 86.6655C287.339 87.5138 285.681 93.4514 282.596 104.478L275.194 129H259.925L240.262 69.3153H255.877L262.586 91.6393C264.282 96.96 266.249 103.862 268.485 112.344C270.644 103.784 272.533 96.8443 274.153 91.5236L280.746 69.3153H294.626L301.219 91.5236C302.838 96.8443 304.728 103.784 306.887 112.344C308.892 104.71 310.858 97.8082 312.786 91.6393Z" fill="black"/>
</svg>
