<svg width="92" height="92" viewBox="0 0 92 92" fill="none" xmlns="http://www.w3.org/2000/svg">
<g clip-path="url(#clip0_3912_1573)">
<path d="M98.6392 0H0V98.6392H98.6392V0Z" fill="#171616"/>
<path d="M39.4544 0H19.7266V19.7278H39.4544V0Z" fill="#98F2D8"/>
<path d="M59.1868 0H39.459V19.7278H59.1868V0Z" fill="#98F2D8"/>
<path d="M78.9075 0H59.1797V19.7278H78.9075V0Z" fill="#98F2D8"/>
<path d="M19.7278 19.7295H0V39.4573H19.7278V19.7295Z" fill="#98F2D8"/>
<path d="M98.638 19.7295H78.9102V39.4573H98.638V19.7295Z" fill="#98F2D8"/>
<path d="M19.7278 39.4551H0V59.1829H19.7278V39.4551Z" fill="#98F2D8"/>
<path d="M39.4544 39.4551H19.7266V59.1829H39.4544V39.4551Z" fill="#98F2D8"/>
<path d="M59.1868 39.4551H39.459V59.1829H59.1868V39.4551Z" fill="#98F2D8"/>
<path d="M78.9075 39.4551H59.1797V59.1829H78.9075V39.4551Z" fill="#98F2D8"/>
<path d="M98.638 39.4551H78.9102V59.1829H98.638V39.4551Z" fill="#98F2D8"/>
<path d="M19.7278 59.1846H0V78.9124H19.7278V59.1846Z" fill="#98F2D8"/>
<path d="M39.4544 59.1846H19.7266V78.9124H39.4544V59.1846Z" fill="#98F2D8"/>
<path d="M59.1868 59.1846H39.459V78.9124H59.1868V59.1846Z" fill="#98F2D8"/>
<path d="M78.9075 59.1846H59.1797V78.9124H78.9075V59.1846Z" fill="#98F2D8"/>
<path d="M98.638 59.1846H78.9102V78.9124H98.638V59.1846Z" fill="#98F2D8"/>
<path d="M19.7278 78.9102H0V98.638H19.7278V78.9102Z" fill="#98F2D8"/>
<path d="M39.4544 78.9102H19.7266V98.638H39.4544V78.9102Z" fill="#98F2D8"/>
<path d="M78.9075 78.9102H59.1797V98.638H78.9075V78.9102Z" fill="#98F2D8"/>
<path d="M98.638 78.9102H78.9102V98.638H98.638V78.9102Z" fill="#98F2D8"/>
</g>
<defs>
<clipPath id="clip0_3912_1573">
<rect width="92" height="92" rx="5.47995" fill="white"/>
</clipPath>
</defs>
</svg>
