<svg width="32" height="32" viewBox="0 0 32 32" fill="none" xmlns="http://www.w3.org/2000/svg">
<path d="M20.5193 6.94964L22.3993 10.7096C22.6527 11.2296 23.3327 11.723 23.906 11.8296L27.306 12.3896C29.4793 12.7496 29.986 14.3229 28.426 15.8963L25.7727 18.5496C25.3327 18.9896 25.0793 19.8563 25.226 20.4829L25.986 23.7629C26.586 26.3496 25.1993 27.3629 22.9193 26.0029L19.7327 24.1096C19.1593 23.7629 18.1993 23.7629 17.626 24.1096L14.4393 26.0029C12.1593 27.3496 10.7726 26.3496 11.3726 23.7629L12.1326 20.4829C12.2526 19.8429 11.9993 18.9763 11.5593 18.5363L8.90594 15.8829C7.34594 14.3229 7.85261 12.7496 10.0259 12.3763L13.426 11.8163C13.9993 11.723 14.6793 11.2163 14.9327 10.6963L16.8127 6.93631C17.8393 4.90964 19.4927 4.90964 20.5193 6.94964Z" fill="url(#paint0_linear_3912_1636)"/>
<path fill-rule="evenodd" clip-rule="evenodd" d="M10.6777 7.6709H2.67773C2.13107 7.6709 1.67773 7.21757 1.67773 6.6709C1.67773 6.12423 2.13107 5.6709 2.67773 5.6709H10.6777C11.2244 5.6709 11.6777 6.12423 11.6777 6.6709C11.6777 7.21757 11.2244 7.6709 10.6777 7.6709ZM6.67773 26.3323H2.67773C2.13107 26.3323 1.67773 25.879 1.67773 25.3323C1.67773 24.7857 2.13107 24.3323 2.67773 24.3323H6.67773C7.2244 24.3323 7.67773 24.7857 7.67773 25.3323C7.67773 25.879 7.2244 26.3323 6.67773 26.3323ZM2.67773 17.0017H4.01107C4.55773 17.0017 5.01107 16.5483 5.01107 16.0017C5.01107 15.455 4.55773 15.0017 4.01107 15.0017H2.67773C2.13107 15.0017 1.67773 15.455 1.67773 16.0017C1.67773 16.5483 2.13107 17.0017 2.67773 17.0017Z" fill="url(#paint1_linear_3912_1636)"/>
<defs>
<linearGradient id="paint0_linear_3912_1636" x1="18.666" y1="26.609" x2="18.666" y2="5.41797" gradientUnits="userSpaceOnUse">
<stop stop-color="#FF5135"/>
<stop offset="1" stop-color="#AF3622"/>
</linearGradient>
<linearGradient id="paint1_linear_3912_1636" x1="6.67773" y1="26.3323" x2="5.33399" y2="5.33496" gradientUnits="userSpaceOnUse">
<stop stop-color="#ADDCFF"/>
<stop offset="1" stop-color="#EAF6FF"/>
</linearGradient>
</defs>
</svg>
