<svg width="24" height="21" viewBox="0 0 24 21" fill="none" xmlns="http://www.w3.org/2000/svg">
<path d="M2 7.76153L22.9176 7.76153M2 7.76153L2.00115 15.653C2.00115 17.1467 2.00115 17.8941 2.25764 18.4647C2.48325 18.9665 2.84298 19.3742 3.28577 19.6299C3.78915 19.9206 4.4486 19.9206 5.76652 19.9206H19.1538C20.4718 19.9206 21.1298 19.9206 21.6332 19.6299C22.076 19.3742 22.4369 18.9665 22.6625 18.4647C22.9188 17.8947 22.9188 17.1482 22.9188 15.6573L22.9176 7.76153M2 7.76153L2 5.36087C2 3.86715 2 3.12133 2.25648 2.5508C2.4821 2.04895 2.84183 1.63987 3.28462 1.38417C3.7875 1.09375 4.44616 1.09375 5.76151 1.09375L19.1561 1.09375C20.4714 1.09375 21.1291 1.09375 21.632 1.38417C22.0748 1.63987 22.4358 2.04895 22.6614 2.5508C22.9176 3.12077 22.9176 3.86621 22.9176 5.35701V7.76153M20.8269 13.645H22.9188M8.27563 13.645H15.5972" stroke="white" stroke-width="2.09187" stroke-linecap="round" stroke-linejoin="round"/>
</svg>
