<svg width="39" height="39" viewBox="0 0 39 39" fill="none" xmlns="http://www.w3.org/2000/svg">
<path d="M0.4375 15.0036C0.4375 6.71736 7.15485 0 15.4411 0H23.9635C32.2497 0 38.9671 6.71735 38.9671 15.0036V23.526C38.9671 31.8122 32.2497 38.5296 23.9635 38.5296H15.4411C7.15486 38.5296 0.4375 31.8122 0.4375 23.526V15.0036Z" fill="url(#paint0_linear_5002_487)"/>
<path d="M11.7572 12.2578L17.9346 20.5311L11.7188 27.2578H13.1181L18.5606 21.3688L22.9576 27.2578H27.7187L21.1941 18.5192L26.9801 12.2578H25.5808L20.569 17.6815L16.5193 12.2578H11.7582H11.7572ZM13.8145 13.2901H16.0012L25.6596 26.2255H23.4729L13.8145 13.2901Z" fill="white"/>
<defs>
<linearGradient id="paint0_linear_5002_487" x1="-42.3437" y1="49.2588" x2="43.8093" y2="43.1118" gradientUnits="userSpaceOnUse">
<stop offset="0.314961" stop-opacity="0"/>
<stop offset="0.74008" stop-color="#54D588" stop-opacity="0.5"/>
<stop offset="0.99" stop-color="#009597"/>
</linearGradient>
</defs>
</svg>
