<?xml version="1.0" encoding="UTF-8"?>
<svg id="Layer_1" data-name="Layer 1" xmlns="http://www.w3.org/2000/svg" viewBox="0 0 1080 1080">
  <defs>
    <style>
      .cls-1 {
        fill: #fff;
      }

      .cls-2 {
        fill: #74592f;
      }

      .cls-3 {
        fill: #d1b15e;
      }
    </style>
  </defs>
  <g id="Layer_1-2" data-name="Layer 1-2">
    <path class="cls-1" d="M440.93,546.07c0,12.41-4.55,23.76-12.81,31.98-8.25,8.22-19.69,12.75-32.2,12.75s-23.94-4.52-32.2-12.75-12.81-19.57-12.81-31.98,4.55-23.76,12.81-31.98c8.25-8.22,19.69-12.75,32.2-12.75s23.94,4.52,32.2,12.75c8.25,8.22,12.81,19.57,12.81,31.98ZM421.94,546.07c0-15.14-10.68-25.7-26.01-25.7s-26.01,10.56-26.01,25.7,10.68,25.7,26.01,25.7,26.01-10.56,26.01-25.7ZM507.61,566.31l18.51,21.3h-21.82l-15.2-19.6h-20.51v19.76h-19v-83.39h19v.06h28.34c8.83,0,16.96,3.22,22.82,9.07,5.89,5.86,9.13,13.93,9.13,22.7s-3.25,16.84-9.13,22.7c-3.4,3.37-7.53,5.89-12.14,7.37v.03ZM496.89,549.02c7.74,0,12.96-5.13,12.96-12.78s-5.22-12.78-12.96-12.78h-28.34v25.55s28.34,0,28.34,0ZM623.98,546.07c0,12.41-4.55,23.76-12.81,31.98s-19.69,12.75-32.2,12.75-23.94-4.52-32.2-12.75c-8.25-8.22-12.81-19.57-12.81-31.98s4.55-23.76,12.81-31.98c8.25-8.22,19.69-12.75,32.2-12.75s23.94,4.52,32.2,12.75c8.25,8.22,12.81,19.57,12.81,31.98ZM604.99,546.07c0-15.14-10.68-25.7-26.01-25.7s-26.01,10.56-26.01,25.7,10.68,25.7,26.01,25.7,26.01-10.56,26.01-25.7h0ZM700.43,549.87c2.88,3.73,4.34,8.16,4.34,13.17,0,8.8-4.04,16.36-11.35,21.27-6.43,4.31-15.17,6.46-26.01,6.46-8.95,0-17.51-2.15-24.06-6.04-3.91-2.31-7.07-5.19-9.32-8.56-2.61-3.88-3.98-8.38-3.98-13.05h19c0,.73,0,2.88,3.98,5.25,3.64,2.15,8.89,3.37,14.38,3.37,6.8,0,12.29-1.15,15.45-3.28,2.06-1.4,2.91-2.97,2.91-5.46,0-1.06,0-1.97-3.1-3.4-4.01-1.85-10.41-2.94-16.57-4.01-7.53-1.27-15.32-2.61-21.79-5.64-4.22-1.97-7.56-4.55-9.92-7.71-2.88-3.82-4.37-8.35-4.37-13.44,0-9.56,4.76-17.48,13.44-22.3,7.65-4.25,16.51-5.13,22.58-5.13,6.55,0,16.05.88,24.22,5.07,9.35,4.79,14.51,12.81,14.51,22.55h-19c0-8.53-18.91-8.62-19.73-8.62-2.85,0-17.02.39-17.02,8.44,0,1.21,0,2.37,3.37,3.95,4.13,1.94,10.62,3.03,16.93,4.13,7.4,1.27,15.05,2.58,21.36,5.49,4.22,1.94,7.4,4.4,9.77,7.47l-.03.03ZM822.45,504.38l-23.76,83.39h-19l-14.26-50.04-14.26,50.04h-19l-23.76-83.39h19l14.26,50.04,14.26-50.04h19l14.26,50.04,14.26-50.04h19ZM901.2,587.77h-19l-4.98-11.99h-40.18l-4.98,11.99h-19l34.56-83.39h19l34.56,83.39h0ZM869.33,556.79l-12.23-29.47-12.23,29.47h24.46ZM988.78,537.45c0,9.13-3.37,17.51-9.47,23.58-6.1,6.07-14.54,9.41-23.7,9.41h-29.92v17.33h-19v-83.39h19v.06h29.92c9.19,0,17.6,3.34,23.7,9.41s9.47,14.44,9.47,23.58v.03ZM969.78,537.45c0-8.38-5.71-13.99-14.17-13.99h-29.92v27.98h29.92c8.5,0,14.17-5.61,14.17-13.99Z"/>
    <g>
      <path class="cls-3" d="M275.76,513.54c2.4,32.93-21.79,61.6-53.96,63.94-32.14,2.37-60.27-22.52-62.67-55.41-2.4-32.93,21.79-61.6,53.96-63.94,32.14-2.37,60.27,22.52,62.67,55.41Z"/>
      <path class="cls-2" d="M222.47,585.4c-36.35,2.67-68.16-25.46-70.89-62.67-.42-5.74-.12-11.35.82-16.78-23.46,9.13-39.36,33.26-37.39,60.21,2.4,32.93,30.53,57.78,62.67,55.41,22.76-1.67,41.51-16.54,49.68-36.75-1.64.24-3.25.46-4.92.58h.03Z"/>
      <g>
        <path class="cls-3" d="M270.75,577.39c0-.18-.06-.33-.09-.52-.03-.18-.06-.33-.12-.49-.09-.18-.21-.33-.33-.49-.09-.09-.12-.24-.21-.33,0,0-.03,0-.06-.03-.12-.12-.3-.21-.46-.3-.15-.09-.3-.21-.46-.27,0,0-.03-.03-.06-.03-.12-.03-.24,0-.39-.06-.21-.03-.39-.09-.61-.09-.15,0-.3.06-.49.09s-.36.06-.55.15-.3.21-.46.3c-.12.09-.24.12-.36.24l-41.42,41.42c-14.38,14.38-33.2,21.67-52.1,21.88-.3-1.12-.88-2.15-1.76-3.03h0c-2.67-2.67-7.31-2.67-9.95,0-.61.61-1.06,1.3-1.4,2.03-14.99-2.43-29.38-9.35-40.91-20.88-14.11-14.11-21.88-32.96-21.88-53.05s7.77-38.93,21.88-53.05c1.06-1.06,1.06-2.79,0-3.85s-2.79-1.06-3.85,0c-15.14,15.08-23.49,35.32-23.49,56.87s8.35,41.79,23.49,56.93c12.56,12.56,28.25,20.06,44.61,22.58.33.88.85,1.67,1.55,2.37,1.34,1.34,3.1,2.06,4.98,2.06s3.64-.73,4.98-2.06c.42-.42.76-.91,1.06-1.43,20.51-.06,41.03-7.92,56.66-23.52l33.17-33.17c-.39,1.4.33,2.85,1.73,3.34.3.09.58.15.88.15,1.15,0,2.18-.73,2.58-1.85l3.73-10.92s0-.27.06-.39c.03-.18.09-.39.06-.58v-.03Z"/>
        <path class="cls-3" d="M276.37,459.16c-12.2-12.2-27.74-20-44.58-22.55-.33-.88-.85-1.7-1.58-2.4h0c-2.76-2.76-7.22-2.76-9.98,0-.46.46-.79.97-1.09,1.49-21.45.09-41.54,8.41-56.63,23.49l-33.17,33.17c.39-1.4-.33-2.85-1.73-3.34-1.43-.49-2.97.27-3.46,1.7l-3.73,10.92s0,.27-.06.39c-.03.18-.09.39-.06.58,0,.18.06.33.09.52.03.18.06.33.12.49.09.18.21.33.33.49.09.12.12.24.21.33,0,0,.03,0,.06.03.12.12.27.18.42.3.15.09.3.21.49.27,0,0,.03,0,.06.03.3.09.58.15.88.15.33,0,.64-.06.94-.18.09-.03.18-.09.27-.12.21-.09.39-.24.58-.39.06-.03.09-.06.15-.09l41.42-41.42c13.9-13.9,32.38-21.64,52.1-21.85.33,1.09.88,2.15,1.73,3,1.37,1.37,3.19,2.06,4.98,2.06s3.61-.7,4.98-2.06c.61-.61,1.06-1.3,1.4-2.03,15.45,2.49,29.68,9.68,40.91,20.91,29.25,29.25,29.25,76.87,0,106.12-1.06,1.06-1.06,2.79,0,3.85.55.55,1.24.79,1.94.79s1.4-.27,1.94-.79c31.38-31.38,31.38-82.45,0-113.86h.06Z"/>
      </g>
    </g>
  </g>
</svg>