<?xml version="1.0" encoding="UTF-8"?>
<svg id="Layer_2" data-name="Layer 2" xmlns="http://www.w3.org/2000/svg" viewBox="0 0 630.02 296.77">
  <defs>
    <style>
      .cls-1 {
        fill: #fff;
      }

      .cls-2 {
        fill: #5dcbf4;
      }

      .cls-3 {
        fill: #ee4e8a;
      }

      .cls-4 {
        fill: #ffc819;
      }
    </style>
  </defs>
  <g id="Layer_1-2" data-name="Layer 1">
    <g id="Layer_1-2" data-name="Layer 1-2">
      <g>
        <path class="cls-1" d="M628.08,105.23c-1.43-3.67-3.57-6.86-6.36-9.48-2.89-2.72-6.43-4.64-10.52-5.71-1.87-.49-3.82-.74-5.81-.74h0c-2.45,0-5.01.38-7.6,1.12l-.1.03-.1.03c-2.19.69-4.23,1.7-6.11,3.01-.11-1.21-.24-2.43-.42-3.67v-.07s-.02-.07-.02-.07c-1.2-7.57-4.27-13.98-9.12-19.05-3.27-3.41-7.03-6.42-11.21-8.98,1.59-1.2,3.22-2.55,4.86-4.02,2-1.79,3.91-3.6,5.69-5.39,2.09-2.09,3.78-4.07,5.18-6.03,2.25-3.15,3.42-5.81,3.79-8.62.35-2.53.06-5.12-.87-7.91-.5-1.49-1.11-2.97-1.83-4.42-.63-1.28-1.32-2.51-2.03-3.68-.73-1.18-1.41-2.17-2.08-3.03-4-5.58-9.17-9.91-15.36-12.88-5.58-2.66-11.47-4.41-17.53-5.21-2.44-.32-5.02-.49-7.64-.49-2.81,0-5.76.19-8.76.56-5.53.69-11.13,1.95-16.62,3.75-5.66,1.86-11.05,4.35-16.02,7.41-2.61,1.61-5.03,3.37-7.26,5.29-.74-1.99-1.92-4.07-3.79-5.88-2.55-2.46-5.89-3.9-9.94-4.32-1.26-.13-2.28-.23-3.08-.32l-.24-.02-.25-.02c-3.77-.25-7.74-.42-11.81-.51-2.16-.05-4.37-.07-6.58-.07-1.94,0-3.92.02-5.9.05-4.1.07-8.27.2-12.38.38-4.07.18-8,.41-11.69.69-1.94.16-3.99.39-6.31.72-2.6.37-5.22.94-7.81,1.7-2.66.78-5.19,1.75-7.54,2.87-3.25,1.56-6,3.6-8.18,6.06-1.81,2.04-3.2,4.52-4.18,7.49-.44-.67-.89-1.32-1.36-1.96-4.09-5.52-9.42-9.44-15.81-11.66-2.99-1.04-6.22-1.56-9.6-1.56-4.09,0-8.5.77-13.14,2.3-6.48,2.16-12.35,5.45-17.48,9.8-.36-.41-.73-.81-1.11-1.19-5.24-5.37-11.44-8.65-18.43-9.75-1.73-.27-3.49-.41-5.24-.41-4.98,0-10.03,1.11-15,3.29-.01,0-.02.01-.04.02-2.87-3.06-7-4.85-12.3-5.33-1.74-.16-3.57-.24-5.44-.24-1.28,0-2.62.04-3.98.11-3.1.17-6.1.46-8.95.85-3.2.44-5.5.88-7.23,1.39l-.36.1-.35.12c-.53.19-1.3.45-2.32.77-2.7.88-4.76,1.95-6.49,3.38-.14-.14-.28-.28-.42-.42-2.55-2.46-5.89-3.9-9.94-4.32-1.26-.13-2.28-.23-3.07-.32l-.25-.03-.25-.02c-3.76-.25-7.74-.42-11.81-.51-2.16-.05-4.37-.07-6.58-.07-1.94,0-3.92.02-5.9.05-4.1.07-8.27.2-12.38.38-4.08.18-8.01.41-11.69.69-1.92.16-4.02.4-6.31.72-2.6.37-5.22.94-7.81,1.7-2.66.79-5.19,1.75-7.54,2.87-3.25,1.56-6,3.6-8.18,6.06-1.81,2.04-3.2,4.52-4.18,7.49-.44-.67-.89-1.32-1.36-1.95-4.09-5.52-9.42-9.45-15.81-11.66-2.99-1.04-6.22-1.56-9.6-1.56-4.09,0-8.5.77-13.14,2.3-6.48,2.16-12.35,5.45-17.48,9.8-.36-.41-.73-.81-1.11-1.2-5.24-5.37-11.44-8.65-18.43-9.75-1.73-.27-3.49-.41-5.24-.41-4.98,0-10.03,1.11-15,3.29-.01,0-.02.01-.04.02-2.87-3.06-7.01-4.85-12.3-5.33-1.74-.16-3.57-.24-5.44-.24-1.28,0-2.62.04-3.98.11-3.1.17-6.11.46-8.95.85-3.2.44-5.5.88-7.23,1.39l-.35.1-.35.12c-.53.19-1.3.45-2.32.77-2.72.89-4.8,1.97-6.54,3.41l-.27.22-.26.24c-3.97,3.7-5.39,9.18-6.18,13.55-.74,4.04-1.29,8.79-1.69,14.51C.17,54.23-.01,60.4,0,67.06c.01,6.52.13,13.21.36,19.87.22,6.61.55,13.25.98,19.73.43,6.52.97,12.47,1.59,17.67.65,5.48,1.36,9.95,2.18,13.67,1.07,4.88,2.81,10.27,7.63,13.36,3.56,2.32,7.59,2.63,11.08,2.63.29,0,.6,0,.91,0,2.87-.05,6.08-.19,9.51-.41,3.39-.22,6.68-.5,9.79-.82,2.62-.27,4.52-.47,5.71-.6.57-.02,1.2-.07,1.9-.14,1.06-.11,2.07-.27,3.01-.47h.04s.04-.02.04-.02c1.93-.43,3.74-1.18,5.38-2.24,3.41-2.23,5.59-5.69,6.19-9.79l.03-.21.02-.21c.06-.49.1-.99.13-1.49,1.49.48,3.1.73,4.77.73h.31l2.91-.06,1.13-.02c.72-.01,1.44-.02,2.17-.02,2.35,0,4.8.07,7.28.2,1.1.06,2.22.09,3.32.09,3.22,0,6.43-.27,9.54-.79,1.58-.24,3.07-.72,4.44-1.42.09,1.35.31,2.59.68,3.77.65,2.15,3.64,9.35,14.11,9.78h.36s.36,0,.36,0c.17,0,.41,0,.7,0,.61,0,1.43,0,2.45.02.63,0,1.27.01,1.95.01,1.34,0,2.8-.01,4.38-.04l2.75-.05,4.29-.08c2.54-.05,4.93-.12,7.1-.21,2.48-.11,4.53-.27,6.28-.48,3.07-.38,5.62-.99,8.04-2.67l.53-.36.48-.42c1.05-.91,1.96-1.94,2.73-3.09,1.87,2.18,4.29,3.95,7.19,5.29,2.1.97,4.41,1.79,6.87,2.45,2.32.62,4.63,1.07,6.89,1.36,2.04.26,3.74.43,5.21.53h.12s.12.01.12.01c2.3.11,4.83.16,7.55.16,1.34,0,2.73-.01,4.17-.04,4.28-.08,8.72-.27,13.19-.56,4.45-.29,8.84-.66,13.07-1.11,4.41-.46,8.38-1.01,11.8-1.62l.51-.09.51-.13c.43-.12,1.16-.32,2.18-.6,1.06-.3,2.16-.62,3.31-.97,1.7-.52,3.29-1.14,4.73-1.86.86-.42,1.92-1,3-1.8.98,1.34,2.2,2.55,3.72,3.52,3.56,2.32,7.59,2.63,11.08,2.63.29,0,.6,0,.91,0,2.88-.05,6.08-.19,9.51-.41,3.4-.22,6.69-.5,9.79-.82,2.62-.27,4.52-.47,5.71-.6.57-.02,1.2-.07,1.89-.14,1.07-.11,2.07-.27,3.01-.47h.04s.04-.02.04-.02c1.94-.43,3.74-1.18,5.38-2.24,3.4-2.22,5.58-5.69,6.19-9.79l.03-.21.02-.21c.06-.49.1-.99.13-1.49,1.49.48,3.1.73,4.77.73h.31l4.05-.07c.72-.01,1.45-.02,2.17-.02,2.34,0,4.8.07,7.28.2,1.1.06,2.22.09,3.32.09,3.21,0,6.43-.27,9.54-.79,1.58-.24,3.07-.72,4.44-1.42.09,1.35.31,2.59.68,3.77.65,2.15,3.65,9.35,14.11,9.78h.36s.36,0,.36,0c.17,0,.4,0,.69,0,.61,0,1.43,0,2.46.02.63,0,1.28.01,1.95.01,1.34,0,2.8-.01,4.38-.04l2.82-.05,4.22-.07c2.52-.05,4.91-.11,7.1-.21,2.48-.11,4.53-.27,6.28-.48,3.07-.38,5.61-.98,8.04-2.67l.53-.36.48-.42c1.05-.91,1.96-1.94,2.73-3.09,1.87,2.18,4.29,3.96,7.19,5.29,2.1.97,4.41,1.79,6.87,2.45,2.32.62,4.63,1.08,6.89,1.37,2.04.26,3.74.43,5.21.53h.12s.12.01.12.01c2.3.11,4.83.16,7.55.16,1.34,0,2.73-.01,4.18-.04,4.28-.08,8.72-.27,13.19-.56,4.45-.29,8.84-.66,13.07-1.11,4.41-.46,8.38-1.01,11.8-1.62l.51-.09.5-.13c.43-.12,1.16-.32,2.19-.61,1.06-.3,2.16-.62,3.31-.97,1.7-.52,3.3-1.15,4.74-1.86,1.76-.87,4.34-2.35,6.25-5.14.73-1.06,1.26-2.15,1.63-3.26,5.35,4.47,11.33,7.83,17.85,10.01,7.11,2.39,14.66,3.6,22.44,3.6,2.29,0,4.63-.11,6.97-.31,7.12-.62,13.83-2.23,19.94-4.79,6.54-2.74,12.14-6.57,16.67-11.4,1.33-1.42,2.54-2.93,3.67-4.51,1.21,2.41,2.8,4.57,4.78,6.44,3.6,3.41,8.1,5.57,13.38,6.43,1.33.22,2.68.33,4.02.33,4.01,0,8.07-.97,12.07-2.9,4.14-1.99,7.3-4.9,9.4-8.65,1.92-3.43,2.95-7.11,3.05-10.91.09-3.58-.56-7.18-1.93-10.72h0Z"/>
        <g>
          <path d="M483.91,116.32c-.21-3-.41-5.91-.62-8.71-.21-2.8-.31-4.66-.33-5.58-.01-.82-.01-1.96.01-3.44.02-1.48-.53-2.31-1.65-2.49-.1-.02-.25-.04-.45-.04-.62,0-1.72.11-3.3.33-2.09.29-4.55.67-7.4,1.12-2.85.46-5.9.97-9.15,1.54-3.25.57-6.31,1.06-9.15,1.46-2.85.41-5.26.73-7.25.97-1.09.13-1.92.2-2.5.2-.48,0-.8-.05-.94-.13-.72-.39-1.32-1.17-1.8-2.34-.48-1.16-.83-2.43-1.06-3.81-.23-1.37-.28-2.69-.15-3.97.13-1.28.5-2.17,1.1-2.69.8-.73,2.48-1.16,5.03-1.31,2.54-.14,5.27-.25,8.18-.3,2.91-.05,5.6-.2,8.1-.45,2.49-.25,4.14-.89,4.94-1.92.3-.31.49-.9.58-1.77.08-.87.12-1.78.1-2.75-.02-.97-.04-1.91-.05-2.83-.02-.92-.03-1.63-.04-2.14-.02-.92-.04-2.27-.07-4.05-.03-1.78-.41-3.02-1.14-3.72-.84-.81-2.38-1.22-4.63-1.22-.24,0-.49,0-.75.01-2.65.1-5.45.25-8.4.46-2.81.19-5.36.3-7.67.3h-.35c-2.39,0-3.81-.47-4.23-1.38-.53-1.32-.69-3.04-.47-5.19.22-2.15.98-3.64,2.29-4.48.3-.21,1.37-.38,3.2-.52,1.83-.13,4.02-.28,6.57-.42,2.55-.14,5.3-.25,8.25-.3,2.96-.05,5.81-.1,8.56-.15,2.75-.05,5.17-.09,7.26-.13s3.54-.06,4.36-.08c.92-.02,1.55-.31,1.9-.87s.56-1.26.65-2.08c.09-.82.1-1.65.03-2.52-.07-.86-.11-1.6-.12-2.22.08-1.22.3-3.16.66-5.82.36-2.66.69-5.42,1-8.28.3-2.86.41-5.49.32-7.88-.1-2.39-.56-3.99-1.39-4.79-.52-.5-1.42-.82-2.69-.95s-2.32-.24-3.14-.33c-3.58-.24-7.32-.4-11.25-.48-2.09-.05-4.2-.07-6.33-.07-1.88,0-3.77.02-5.68.05-4.08.07-8.1.2-12.07.37-3.97.17-7.74.4-11.31.66-1.63.13-3.46.34-5.5.63-2.04.29-4.07.74-6.09,1.33-2.03.6-3.93,1.32-5.7,2.17-1.77.85-3.2,1.89-4.3,3.14-1.2,1.35-2.03,3.53-2.48,6.55-.46,3.02-.75,6.26-.89,9.73-.14,3.47-.13,6.83.03,10.09.16,3.26.26,5.81.29,7.64.04,2.04.04,4.95,0,8.72-.04,3.77-.06,7.98-.08,12.62-.02,4.64.02,9.48.11,14.53.09,5.05.3,9.81.64,14.29.34,4.48.81,8.45,1.44,11.9.62,3.45,1.46,5.89,2.5,7.3.73,1.01,1.84,1.86,3.33,2.54,1.49.69,3.13,1.27,4.93,1.75,1.79.47,3.56.83,5.29,1.05,1.74.22,3.22.37,4.44.46,2.11.1,4.44.15,6.98.15,1.27,0,2.59-.01,3.96-.04,4.13-.07,8.33-.25,12.61-.53,4.28-.28,8.48-.64,12.6-1.07,4.12-.43,7.76-.93,10.91-1.5.4-.11,1.09-.3,2.05-.57.96-.27,1.98-.57,3.04-.89s2.03-.7,2.89-1.12c.86-.42,1.39-.79,1.59-1.1.3-.41.4-1.87.3-4.36-.1-2.5-.25-5.24-.45-8.25v-.02Z"/>
          <path d="M242.97,120.63c-.21-3-.41-5.9-.62-8.71-.21-2.8-.31-4.66-.33-5.58-.01-.82-.01-1.96.01-3.44.02-1.48-.53-2.31-1.65-2.49-.1-.02-.25-.04-.45-.04-.62,0-1.72.11-3.3.33-2.09.29-4.55.67-7.4,1.12-2.85.46-5.9.97-9.15,1.54-3.25.57-6.31,1.06-9.15,1.46-2.85.41-5.26.73-7.25.97-1.09.13-1.92.2-2.5.2-.48,0-.8-.05-.94-.13-.72-.39-1.32-1.17-1.8-2.34-.48-1.16-.83-2.43-1.06-3.81-.23-1.37-.28-2.69-.15-3.97.13-1.28.5-2.17,1.1-2.69.8-.72,2.48-1.16,5.03-1.31,2.54-.14,5.27-.25,8.18-.3,2.91-.05,5.6-.2,8.1-.45,2.49-.25,4.14-.89,4.94-1.92.3-.31.49-.9.58-1.77.08-.87.12-1.78.1-2.75-.02-.97-.04-1.91-.05-2.83-.02-.92-.03-1.63-.04-2.14-.02-.92-.04-2.27-.07-4.05-.03-1.78-.41-3.02-1.14-3.72-.84-.81-2.38-1.22-4.62-1.22-.24,0-.49,0-.75.01-2.65.1-5.45.25-8.4.46-2.81.19-5.37.3-7.67.3h-.35c-2.39,0-3.81-.47-4.23-1.38-.53-1.32-.69-3.04-.47-5.19.22-2.15.98-3.64,2.29-4.48.3-.21,1.37-.38,3.2-.52,1.83-.13,4.02-.28,6.57-.42,2.55-.14,5.3-.25,8.25-.3,2.96-.05,5.81-.1,8.56-.15s5.17-.09,7.26-.13,3.54-.06,4.36-.08c.92-.02,1.55-.31,1.9-.87s.56-1.26.65-2.08c.09-.82.1-1.65.03-2.52-.07-.86-.11-1.6-.12-2.22.08-1.22.3-3.16.66-5.82.36-2.66.69-5.42,1-8.28.3-2.86.41-5.49.32-7.88-.1-2.39-.56-3.99-1.39-4.79-.52-.5-1.42-.82-2.69-.95s-2.32-.24-3.14-.33c-3.58-.24-7.32-.4-11.25-.48-2.09-.05-4.19-.07-6.32-.07-1.88,0-3.77.02-5.68.05-4.08.07-8.1.2-12.07.37-3.97.17-7.74.4-11.31.66-1.63.13-3.46.34-5.5.63-2.04.29-4.07.74-6.09,1.33-2.03.6-3.93,1.32-5.7,2.17-1.77.85-3.2,1.89-4.3,3.14-1.2,1.35-2.03,3.53-2.48,6.55-.46,3.02-.75,6.26-.89,9.73-.14,3.47-.13,6.83.02,10.09.16,3.26.26,5.81.29,7.64.04,2.04.04,4.95,0,8.72-.04,3.77-.06,7.98-.08,12.62-.02,4.64.02,9.48.11,14.53.09,5.05.3,9.81.64,14.29.33,4.48.81,8.45,1.44,11.9.62,3.45,1.46,5.89,2.5,7.3.73,1.01,1.84,1.86,3.33,2.54,1.49.69,3.13,1.27,4.93,1.75,1.79.48,3.56.83,5.29,1.05,1.74.22,3.22.37,4.44.46,2.11.1,4.44.15,6.98.15,1.27,0,2.59-.01,3.95-.04,4.13-.07,8.33-.25,12.61-.53,4.28-.28,8.48-.64,12.6-1.07,4.12-.43,7.76-.93,10.91-1.5.4-.11,1.09-.3,2.05-.57.96-.27,1.98-.57,3.04-.89,1.06-.33,2.03-.7,2.89-1.12.86-.42,1.39-.79,1.59-1.1.3-.41.4-1.87.3-4.36-.1-2.5-.25-5.24-.45-8.25h0Z"/>
          <path d="M148.39,48.31c-1.36-5.03-3.35-9.29-5.97-12.82-2.61-3.52-5.94-5.99-10-7.39-1.7-.59-3.57-.88-5.59-.88-2.79,0-5.89.56-9.3,1.69-5.17,1.73-9.78,4.36-13.85,7.89-4.07,3.54-7.54,7.58-10.41,12.12-1.23-6.2-3.54-11.02-6.91-14.48-3.38-3.45-7.24-5.53-11.58-6.21-1.1-.17-2.21-.26-3.33-.26-3.29,0-6.66.75-10.09,2.26-4.6,2.02-8.7,5.41-12.28,10.16-.01-.61-.03-1.55-.05-2.83-.02-1.27-.07-2.57-.15-3.9-.07-1.32-.2-2.55-.37-3.66s-.47-1.93-.89-2.43c-.73-.91-2.27-1.46-4.62-1.68-1.38-.12-2.82-.19-4.33-.19-1.07,0-2.17.03-3.31.09-2.75.15-5.4.4-7.94.75-2.55.35-4.37.69-5.49,1.01-.61.22-1.5.51-2.66.89-1.17.38-2,.78-2.5,1.19-1,.93-1.83,3.19-2.48,6.77-.65,3.58-1.16,7.97-1.52,13.18-.36,5.21-.54,11.02-.53,17.44.01,6.42.13,12.92.35,19.49.22,6.57.54,13.02.96,19.33.42,6.32.93,11.99,1.53,17.02.6,5.04,1.26,9.21,1.98,12.5.72,3.3,1.49,5.2,2.32,5.69.66.45,2.14.68,4.44.68.22,0,.46,0,.69,0,2.7-.05,5.68-.18,8.94-.39,3.26-.21,6.36-.47,9.31-.78,2.95-.31,4.99-.52,6.11-.64.41,0,.92-.04,1.53-.11.61-.06,1.17-.15,1.68-.26.51-.11.96-.3,1.36-.56.4-.26.65-.7.74-1.31.27-2.35.09-4.97-.52-7.87-.61-2.89-1.04-5.56-1.29-8.01-.13-1.83-.36-4.25-.66-7.25-.31-3-.6-6.28-.87-9.85-.27-3.56-.51-7.23-.73-11-.22-3.77-.34-7.36-.35-10.77-.01-3.42.11-6.52.37-9.34.25-2.81.72-4.98,1.41-6.52s1.73-2.76,3.14-3.65c.71-.45,1.44-.67,2.21-.67s1.56.22,2.38.66c1.64.89,2.98,2.78,4,5.66,1.02,2.89,1.85,6.29,2.48,10.2.63,3.91,1.09,8.14,1.37,12.67.28,4.53.52,8.89.69,13.06.17,4.18.29,7.97.36,11.39.06,3.42.21,5.94.44,7.56.22,1.4,1.1,2.09,2.62,2.09h.09c1.58-.03,2.93-.05,4.05-.07.79-.01,1.59-.02,2.39-.02,2.6,0,5.24.07,7.94.22.89.05,1.78.07,2.66.07,2.6,0,5.15-.21,7.65-.64.92-.12,1.52-.59,1.81-1.41.29-.82.45-1.74.49-2.76.03-1.02-.01-2.04-.13-3.06-.12-1.01-.19-1.88-.2-2.6-.03-1.63-.1-4.13-.21-7.49-.11-3.36-.15-7.05-.12-11.09.03-4.03.18-8.16.47-12.39.28-4.23.85-8.14,1.7-11.73.85-3.58,2.02-6.54,3.51-8.85,1.49-2.32,3.45-3.6,5.89-3.85.17-.01.33-.02.49-.02,1.1,0,2.01.37,2.74,1.11.83.85,1.51,1.94,2.05,3.25.53,1.32.91,2.66,1.14,4.03.23,1.37.4,2.51.52,3.43.8,4.98,1.25,10.02,1.34,15.11.09,5.1,0,10.2-.26,15.3-.27,5.11-.66,10.21-1.18,15.32-.52,5.11-.99,10.16-1.41,15.17-.18,1.53-.16,2.66.06,3.36.22.71,1.19,1.1,2.92,1.17.23,0,.53,0,.92,0,.65,0,1.51,0,2.6.02.57,0,1.17.01,1.8.01,1.27,0,2.66-.01,4.16-.04,2.24-.04,4.59-.08,7.03-.13,2.45-.04,4.71-.11,6.8-.2,2.09-.09,3.84-.22,5.27-.4,1.42-.18,2.29-.37,2.59-.58.6-.52,1-1.29,1.18-2.32.66-2.97,1.11-6.21,1.35-9.74.24-3.52.38-7.14.42-10.87.03-3.72.04-7.39.03-11.01-.01-3.62.05-7.01.2-10.17.14-3.47.22-7.73.23-12.78.01-5.05-.29-10.24-.89-15.58-.6-5.34-1.59-10.52-2.95-15.55h0Z"/>
          <path d="M389.33,43.99c-1.36-5.03-3.35-9.29-5.97-12.82-2.61-3.52-5.94-5.99-10-7.39-1.7-.59-3.57-.88-5.59-.88-2.79,0-5.89.56-9.3,1.69-5.17,1.73-9.78,4.36-13.85,7.89-4.07,3.54-7.54,7.58-10.41,12.12-1.23-6.2-3.54-11.02-6.91-14.48-3.38-3.45-7.24-5.53-11.58-6.21-1.1-.17-2.21-.26-3.33-.26-3.29,0-6.66.75-10.09,2.26-4.6,2.02-8.7,5.41-12.28,10.16-.01-.61-.03-1.55-.05-2.83-.02-1.27-.07-2.57-.15-3.9-.07-1.32-.2-2.54-.37-3.66-.17-1.12-.47-1.93-.89-2.43-.73-.91-2.27-1.46-4.62-1.68-1.38-.12-2.82-.19-4.33-.19-1.07,0-2.17.03-3.31.09-2.75.15-5.4.4-7.94.75-2.55.35-4.37.69-5.49,1.01-.61.22-1.5.51-2.66.89-1.17.38-2,.78-2.5,1.19-1,.93-1.83,3.19-2.48,6.77-.65,3.58-1.16,7.97-1.52,13.18-.36,5.21-.54,11.02-.53,17.44.01,6.42.13,12.92.35,19.49.22,6.57.54,13.02.96,19.33.42,6.32.93,11.99,1.53,17.02.6,5.04,1.26,9.21,1.98,12.5.72,3.3,1.49,5.2,2.32,5.69.66.45,2.14.68,4.44.68.22,0,.46,0,.69,0,2.7-.05,5.68-.18,8.94-.39,3.26-.21,6.36-.47,9.31-.78,2.95-.31,4.99-.52,6.11-.64.41,0,.92-.04,1.53-.11s1.17-.15,1.68-.26c.51-.11.96-.3,1.36-.56s.65-.7.74-1.31c.27-2.35.09-4.97-.52-7.87-.61-2.89-1.04-5.56-1.29-8.01-.13-1.83-.36-4.25-.66-7.25-.31-3-.6-6.28-.87-9.85-.27-3.56-.51-7.23-.73-11-.22-3.77-.34-7.36-.35-10.77-.01-3.42.11-6.52.37-9.34.25-2.81.72-4.98,1.41-6.52.69-1.54,1.73-2.76,3.15-3.65.71-.45,1.44-.67,2.21-.67s1.56.22,2.38.66c1.64.89,2.98,2.78,4,5.67,1.02,2.89,1.85,6.29,2.48,10.2.63,3.91,1.09,8.14,1.37,12.67.28,4.53.52,8.89.69,13.06.17,4.18.29,7.97.36,11.39.06,3.42.21,5.94.44,7.56.22,1.4,1.1,2.09,2.62,2.09h.09c1.58-.03,2.93-.05,4.05-.07.79-.01,1.59-.02,2.39-.02,2.6,0,5.24.07,7.94.22.89.05,1.78.07,2.66.07,2.6,0,5.15-.21,7.65-.64.92-.12,1.52-.59,1.81-1.41s.45-1.74.49-2.76c.03-1.02-.01-2.04-.13-3.06-.12-1.01-.19-1.88-.2-2.6-.03-1.63-.1-4.13-.21-7.49-.11-3.36-.15-7.05-.12-11.09.03-4.03.18-8.16.47-12.39.28-4.24.85-8.14,1.7-11.73.85-3.58,2.02-6.54,3.51-8.85,1.49-2.32,3.45-3.6,5.89-3.85.17-.01.33-.02.49-.02,1.1,0,2.01.37,2.74,1.11.83.85,1.51,1.94,2.05,3.25.53,1.32.91,2.66,1.14,4.03.23,1.37.4,2.51.52,3.43.8,4.98,1.25,10.02,1.34,15.11.09,5.1,0,10.2-.26,15.3-.27,5.11-.66,10.21-1.18,15.32-.52,5.11-.99,10.16-1.41,15.17-.18,1.53-.16,2.66.06,3.36.22.71,1.19,1.1,2.92,1.17.23,0,.53,0,.91,0,.65,0,1.52,0,2.61.02.57,0,1.17.01,1.8.01,1.27,0,2.66-.01,4.16-.04,2.24-.04,4.59-.08,7.03-.13,2.45-.04,4.71-.11,6.8-.2,2.09-.09,3.84-.22,5.27-.4,1.42-.18,2.29-.37,2.59-.58.6-.52.99-1.29,1.18-2.32.66-2.97,1.11-6.21,1.35-9.74s.38-7.14.42-10.86c.03-3.72.04-7.39.03-11.01-.01-3.62.05-7.01.2-10.17.14-3.47.22-7.73.23-12.78.01-5.05-.29-10.24-.89-15.58-.61-5.34-1.59-10.52-2.96-15.55h.01Z"/>
          <path d="M578.98,91.6c-.81-5.08-2.77-9.25-5.88-12.51-3.12-3.26-6.79-6.02-11.01-8.29-4.22-2.27-8.64-4.3-13.26-6.11-4.62-1.8-8.78-3.74-12.49-5.82-.82-.49-1.88-1.21-3.17-2.16-1.29-.94-2.4-1.99-3.35-3.15-.94-1.15-1.52-2.34-1.75-3.56-.23-1.22.26-2.4,1.47-3.54,1.44-1.33,3.04-1.99,4.81-1.99.44,0,.89.04,1.35.12,2.3.42,4.61,1.29,6.93,2.63,2.32,1.34,4.51,2.85,6.58,4.55,2.07,1.7,3.78,3.04,5.12,4.04.27.22.62.33,1.05.33.54,0,1.21-.18,2.01-.54,1.41-.64,2.98-1.56,4.69-2.76,1.71-1.2,3.49-2.63,5.35-4.3,1.86-1.66,3.59-3.3,5.19-4.91,1.6-1.61,2.9-3.11,3.89-4.51.99-1.39,1.53-2.45,1.63-3.16.09-.61-.02-1.4-.35-2.37-.32-.96-.72-1.92-1.2-2.88-.47-.96-.98-1.87-1.5-2.73-.53-.86-1-1.53-1.41-2.04-2.83-4.03-6.45-7.1-10.87-9.21-4.42-2.11-9.04-3.48-13.84-4.11-1.94-.25-3.96-.38-6.05-.38-2.32,0-4.74.16-7.25.47-4.78.6-9.55,1.68-14.32,3.24-4.76,1.57-9.24,3.63-13.42,6.21-4.19,2.57-7.7,5.62-10.54,9.13-2.84,3.52-4.76,7.45-5.75,11.8-.99,4.35-.68,9.11.94,14.28,1.4,4.26,3.68,7.96,6.85,11.12,3.16,3.15,6.73,5.92,10.7,8.3,3.96,2.38,8.11,4.54,12.43,6.51,4.32,1.96,8.33,3.93,12.03,5.9.72.4,1.57.97,2.55,1.71.98.75,1.79,1.57,2.42,2.48.63.91.95,1.87.97,2.89.02,1.02-.48,1.95-1.48,2.78-1.26,1.07-2.62,1.61-4.09,1.61-.53,0-1.07-.07-1.62-.21-2.1-.52-4.16-1.45-6.17-2.8-2.01-1.34-3.93-2.84-5.74-4.48-1.81-1.65-3.34-2.92-4.58-3.82-.26-.18-.6-.28-1.03-.28-.95,0-2.34.46-4.15,1.36-2.63,1.32-5.32,3.1-8.08,5.34-2.77,2.24-5.27,4.61-7.52,7.09-2.25,2.49-3.46,4.55-3.64,6.18-.09.61.07,1.3.5,2.05.42.76.92,1.51,1.49,2.27s1.17,1.49,1.8,2.19c.62.7,1.09,1.26,1.4,1.65,5.63,6.63,12.26,11.23,19.9,13.79,5.88,1.97,12.07,2.96,18.55,2.96,1.94,0,3.9-.09,5.89-.27,5.9-.51,11.33-1.81,16.29-3.89,4.96-2.08,9.11-4.9,12.47-8.48,3.35-3.58,5.8-7.85,7.34-12.83,1.54-4.97,1.85-10.61.92-16.91h.01Z"/>
        </g>
        <path d="M616.49,101.32c-1.97-1.85-4.37-3.14-7.22-3.89-1.24-.32-2.53-.48-3.87-.48-1.75,0-3.58.28-5.5.82-1.92.6-3.66,1.58-5.23,2.91-1.57,1.34-2.79,2.87-3.67,4.59-2.31,4.26-3.12,8.2-2.43,11.83.69,3.64,2.27,6.62,4.76,8.98,2.48,2.35,5.6,3.83,9.36,4.45.92.15,1.85.23,2.79.23,2.87,0,5.79-.71,8.77-2.14,2.7-1.3,4.71-3.13,6.03-5.49,1.32-2.36,2.01-4.82,2.08-7.38.06-2.56-.41-5.15-1.42-7.75-1.01-2.6-2.5-4.82-4.46-6.67h0Z"/>
        <g>
          <path d="M445.71,143.68c-1.23-9.18-9.16-15.9-18.19-15.9-.81,0-1.62.05-2.44.16l-254.23,34.19c-10,1.34-17.08,10.63-15.74,20.63l11.55,85.87c1.23,9.18,9.16,15.9,18.19,15.9.81,0,1.62-.05,2.44-.16l254.23-34.19c10-1.34,17.08-10.63,15.74-20.63l-11.55-85.87h0Z"/>
          <path class="cls-1" d="M469.38,227.92l-11.55-85.87c-2.03-15.11-15.06-26.51-30.31-26.51h0c-1.35,0-2.73.09-4.07.27l-254.23,34.19c-8.08,1.09-15.26,5.27-20.22,11.77-4.96,6.51-7.1,14.54-6.01,22.61l11.55,85.87c2.03,15.11,15.06,26.51,30.31,26.51,1.35,0,2.73-.09,4.07-.27l254.23-34.19c8.08-1.09,15.26-5.27,20.22-11.77,4.96-6.51,7.1-14.54,6.01-22.61h0ZM184.84,284.53c-9.03,0-16.95-6.72-18.19-15.9l-11.55-85.87c-1.34-10,5.74-19.29,15.74-20.63l254.23-34.19c.82-.11,1.64-.16,2.44-.16,9.03,0,16.95,6.72,18.19,15.9l11.55,85.87c1.34,10-5.74,19.29-15.74,20.63l-254.23,34.19c-.82.11-1.63.16-2.44.16h0Z"/>
          <path class="cls-2" d="M204.04,264.86c-.8.11-1.64.22-2.53.34-.88.12-1.71.06-2.47-.16-.94-.28-1.81-1.02-2.63-2.22-.82-1.2-1.54-2.63-2.17-4.3-.64-1.67-1.19-3.5-1.65-5.48-.47-1.98-.89-3.93-1.28-5.83-.38-1.91-.68-3.67-.89-5.27-.22-1.61-.39-2.89-.52-3.85-.17-1.28-.45-3.35-.83-6.2-.38-2.85-.8-6.1-1.25-9.76-.45-3.66-.88-7.48-1.3-11.47-.41-3.99-.8-7.74-1.15-11.25-.35-3.51-.58-6.58-.69-9.22-.11-2.64-.06-4.42.14-5.35.36-1.6,1.13-2.97,2.33-4.11,1.2-1.14,2.57-2.13,4.14-2.95,1.56-.82,3.21-1.47,4.95-1.95,1.73-.48,3.27-.89,4.61-1.23.79-.19,2.37-.46,4.73-.82,2.36-.36,5.06-.76,8.11-1.21,3.04-.45,6.23-.88,9.57-1.29,3.33-.41,6.46-.75,9.36-1.01,2.9-.27,5.38-.43,7.41-.51,2.03-.07,3.27.03,3.72.3.72.48,1.21,1.7,1.47,3.66s.43,4.13.51,6.49c.07,2.36.07,4.63,0,6.8-.07,2.17-.05,3.71.06,4.59.06.48.14,1.04.23,1.69s.13,1.27.13,1.88c0,.61-.11,1.14-.34,1.58-.23.44-.7.71-1.43.8-.56.07-1.67.21-3.32.39-1.65.18-3.54.43-5.66.76-2.12.33-4.37.65-6.73.97-2.37.32-4.55.63-6.55.94-2,.31-3.7.62-5.09.93-1.39.31-2.2.52-2.43.63-.44.39-.79.98-1.05,1.8-.26.81-.41,1.65-.46,2.51s.05,1.69.27,2.48c.23.79.57,1.35,1.03,1.7.53.34,1.76.36,3.68.06,1.92-.3,4.02-.64,6.29-1.03,2.28-.39,4.42-.7,6.43-.93s3.34-.06,3.99.51c.27.21.48.57.63,1.08.15.51.28,1.05.4,1.6.12.56.19,1.12.23,1.69.04.57.07,1.01.12,1.33.07.56.21,1.28.41,2.15.2.87.34,1.73.41,2.58.07.85.02,1.65-.17,2.41-.18.76-.58,1.3-1.19,1.63-.91.53-2.31.91-4.2,1.11-1.89.22-3.85.42-5.86.6-2.02.19-3.84.5-5.45.92-1.62.42-2.57,1.1-2.85,2.04s-.25,2.36.08,4.28c.34,1.92.77,4.06,1.29,6.44.52,2.38,1.09,4.88,1.68,7.5s1,5.03,1.22,7.25c.22,2.22.14,4.13-.21,5.73-.36,1.6-1.17,2.57-2.43,2.9-2.27.71-4.72,1.19-7.35,1.42-2.62.23-5.13.55-7.53.95h.01Z"/>
          <path class="cls-4" d="M310.42,244.26c-2.14,2.66-4.55,4.92-7.24,6.8-2.69,1.87-5.62,3.33-8.79,4.37-3.17,1.04-6.52,1.47-10.06,1.29-3.95-.21-7.48-1.1-10.59-2.68-3.12-1.58-5.82-3.67-8.13-6.26-2.31-2.59-4.19-5.52-5.66-8.8-1.46-3.27-2.48-6.72-3.04-10.32-.91-5.52-1.72-11.11-2.44-16.77-.72-5.67-1.25-11.25-1.58-16.77-.13-1.53-.25-3.25-.39-5.16-.13-1.9-.27-3.82-.41-5.77-.14-1.94-.21-3.83-.21-5.67,0-1.84.14-3.51.43-5.02.2-.93.79-1.45,1.75-1.58.96-.13,1.81-.2,2.54-.22.88-.12,2.43-.31,4.64-.56,2.21-.25,4.53-.49,6.96-.69,2.42-.21,4.65-.32,6.69-.35,2.04-.03,3.32.08,3.85.34.45.27.74.64.88,1.11.14.47.21.95.19,1.45.18,3.16.25,6.89.22,11.19-.04,4.29.06,8.69.3,13.2.24,4.5.71,8.79,1.42,12.86.71,4.07,1.9,7.47,3.58,10.18.94,1.51,2.09,2.64,3.46,3.39,1.37.76,2.81,1.15,4.33,1.2,1.52.04,3.01-.24,4.48-.85,1.47-.6,2.78-1.52,3.92-2.73,2.07-2.24,3.44-5.12,4.11-8.64.67-3.52.92-7.29.75-11.32-.17-4.02-.64-8.11-1.4-12.25-.76-4.14-1.54-7.94-2.33-11.39-.79-3.45-1.43-6.37-1.91-8.75s-.52-3.85-.1-4.4c.21-.27.6-.51,1.19-.71s1.24-.37,1.96-.51c.72-.13,1.41-.25,2.1-.34s1.18-.16,1.51-.2c.87-.2,2.38-.52,4.53-.98s4.37-.89,6.68-1.33c2.31-.43,4.47-.76,6.49-.99,2.01-.23,3.29-.17,3.82.16.71.4,1.28,1.77,1.72,4.12.44,2.35.77,4.94.98,7.77.22,2.83.35,5.53.41,8.09.06,2.57.15,4.33.28,5.29,1.06,9.75,2.4,19.37,4.01,28.88,1.61,9.51,3.7,19.03,6.29,28.57.17.63.38,1.44.63,2.43s.09,1.72-.5,2.21c-.65.66-1.92,1.22-3.82,1.68-1.9.46-3.97.84-6.22,1.14-2.25.3-4.42.55-6.52.75-2.1.2-3.67.37-4.71.51-1.12.15-2.05.11-2.77-.12-.72-.23-1.18-1.07-1.38-2.51l-1.75-13c-1.3,3.12-3.01,6-5.15,8.66h-.01Z"/>
          <path class="cls-3" d="M370.29,195.68c.79,6.51,1.75,13,2.86,19.47,1.11,6.47,2.67,12.84,4.65,19.11.16.55.44,1.43.85,2.65.41,1.21.48,2.08.23,2.61-.24.6-.95,1.13-2.12,1.57-1.17.44-2.47.8-3.9,1.08-1.44.27-2.81.5-4.14.68-1.33.18-2.31.31-2.95.4-.72.1-1.68.31-2.86.63-1.18.32-2.39.59-3.63.8-1.24.21-2.41.33-3.51.35s-1.97-.17-2.59-.57c-.9-.62-1.79-2.52-2.67-5.71-.88-3.19-1.75-7.08-2.61-11.66-.86-4.58-1.65-9.54-2.37-14.88-.72-5.34-1.36-10.44-1.94-15.3-.57-4.87-1.03-9.19-1.38-12.99-.35-3.79-.58-6.46-.71-8-.02-.73-.05-2.08-.11-4.03-.06-1.95-.07-3.99-.03-6.12.04-2.13.19-4.07.44-5.82.25-1.75.64-2.82,1.16-3.22.3-.2,1.57-.5,3.8-.88,2.23-.38,4.71-.8,7.43-1.24,2.72-.45,5.26-.81,7.64-1.09,2.37-.28,3.84-.41,4.42-.41.66.07,1.33.19,2.01.34.67.16,1.25.53,1.74,1.11,1.3,1.79,2.48,3.73,3.54,5.83,1.06,2.11,2.17,4.14,3.33,6.11,2.44,4.17,4.92,8.31,7.43,12.42,2.51,4.12,5.11,8.2,7.78,12.25,1.46,2.34,2.96,4.67,4.49,6.99,1.54,2.33,3.23,4.55,5.06,6.67-.24-1.76-.41-3.52-.52-5.26-.11-1.74-.25-3.5-.4-5.28-.05-.97-.33-2.73-.83-5.28-.51-2.55-1.1-5.41-1.77-8.59-.67-3.18-1.39-6.51-2.14-10.01-.76-3.49-1.45-6.71-2.09-9.65-.64-2.94-1.15-5.38-1.54-7.33-.39-1.95-.51-3.02-.37-3.2,2.75-.78,5.14-1.4,7.16-1.88,2.02-.47,4.23-.94,6.62-1.38,2.39-.45,4.63-.79,6.73-1.03,2.09-.24,3.86-.31,5.3-.22,1.44.09,2.25.5,2.43,1.21l-.25.89c.45,1.49,1.01,4.3,1.68,8.41.68,4.12,1.38,8.9,2.11,14.36.74,5.46,1.43,11.25,2.09,17.37.66,6.12,1.2,11.97,1.63,17.55.42,5.58.7,10.53.83,14.84.13,4.31-.01,7.36-.43,9.13-.22.85-.5,1.78-.85,2.81-.35,1.03-.94,1.8-1.77,2.32-.83.52-1.8.77-2.9.76-1.1-.02-2.1,0-3,.04-.72.1-1.94.3-3.66.62-1.72.31-3.49.61-5.33.9-1.84.29-3.52.56-5.04.8-1.52.24-2.45.31-2.79.19-1.38-.55-3.03-1.76-4.96-3.62-1.93-1.86-3.95-4.13-6.06-6.79-2.11-2.66-4.26-5.53-6.43-8.64-2.17-3.1-4.22-6.13-6.13-9.1-1.91-2.97-3.63-5.7-5.15-8.19-1.52-2.49-2.71-4.46-3.55-5.89h.02Z"/>
        </g>
      </g>
    </g>
  </g>
</svg>