<?xml version="1.0" encoding="UTF-8"?>
<svg id="Layer_2" data-name="Layer 2" xmlns="http://www.w3.org/2000/svg" xmlns:xlink="http://www.w3.org/1999/xlink" viewBox="0 0 1474 443">
  <defs>
    <style>
      .cls-1 {
        fill: #ff5895;
      }

      .cls-2 {
        fill: url(#linear-gradient-3);
      }

      .cls-2, .cls-3, .cls-4 {
        stroke: #000;
        stroke-miterlimit: 10;
        stroke-width: 6.06px;
      }

      .cls-3 {
        fill: url(#linear-gradient-2);
      }

      .cls-4 {
        fill: url(#linear-gradient-4);
      }

      .cls-5 {
        fill: url(#linear-gradient);
      }
    </style>
    <linearGradient id="linear-gradient" x1="1726.45" y1="172.35" x2="399.65" y2="299.89" gradientUnits="userSpaceOnUse">
      <stop offset="0" stop-color="#ade3fb"/>
      <stop offset=".29" stop-color="#84d8f6"/>
      <stop offset=".77" stop-color="#43c9ef"/>
      <stop offset="1" stop-color="#2ac3ed"/>
    </linearGradient>
    <linearGradient id="linear-gradient-2" x1="-174.11" y1="145.64" x2="324.74" y2="422.93" gradientTransform="translate(119.82 -26.79) rotate(20.57)" xlink:href="#linear-gradient"/>
    <linearGradient id="linear-gradient-3" x1="-134.59" y1="74.54" x2="364.26" y2="351.83" gradientTransform="translate(101.83 -50.67) rotate(20.57)" xlink:href="#linear-gradient"/>
    <linearGradient id="linear-gradient-4" x1="-95.91" y1="4.95" x2="402.94" y2="282.23" gradientTransform="translate(84.79 -74.72) rotate(20.57)" xlink:href="#linear-gradient"/>
  </defs>
  <g id="Layer_1-2" data-name="Layer 1">
    <g>
      <path class="cls-5" d="M578.83,204.22l-69.18,79.61,69.18,2.38.53,44.96-125.37-6.08,3.17-39.14,73.69-81.73-80.83,5.56,3.97-41.26,127.75-7.67-2.91,43.38ZM591.51,164.28l8.46,157.63,45.23-7.4-3.17-157.11-50.52,6.88ZM735.11,263.46l37.07,3.44c-4.54,8.2-16.07,9.52-29.4,9.52-17.33,0-33.32-11.9-33.32-37.82,0-29.89,17.42-41.52,33.32-41.52s26.18,10.58,29.89,24.33l45.76-24.6c-12.7-22.75-31.47-43.11-79.08-43.11-44.44,0-81.46,26.98-81.46,84.9s37.81,80.14,84.9,80.14,76.7-20.37,78.55-83.05l-78.82-8.99-7.41,36.76ZM907.8,192.58c14.55,0,25.92,8.2,30.42,21.95l40.47-25.39c-12.96-23.54-29.84-36.23-71.41-36.23-43.94,0-73.79,17.46-73.79,48.66,0,32.88,17.6,43.95,67.98,54.75,20.2,4.33,29.89,8.89,29.89,15.08s-14.81,7.67-28.3,7.67-29.89-5.82-37.29-19.57l-37.82,29.62c19.31,25.92,40.35,31.74,79.34,31.74s70.62-11.33,70.62-46.29-16.88-48.11-66.65-58.29c-13.75-2.81-28.04-3.82-28.04-12.07,0-6.35,10.72-11.64,24.6-11.64ZM1069.38,279.6c-18.12,0-32.53-12.96-32.53-41.26,0-26.72,17.69-40.2,33.33-40.2,13.33,0,25.39,10.84,28.3,29.36l43.38-22.22c-9.26-29.89-32.53-48.4-78.55-48.4s-77.5,33.06-77.5,89.93,37.03,76.7,80.14,76.7c40.74,0,64.53-13.75,77.49-38.88l-42.85-26.98c-4.76,12.96-16.51,21.95-31.21,21.95ZM1249.47,159.52l64.84,154.99-62.46,9.52-7.67-33.06-35.44.26-10.58,32-52.86-3.44,52.86-168.22,51.31,7.94ZM1237.57,249.97l-12.43-34.38-11.64,33.85,24.07.53ZM1426.39,157.4l-.79,88.1-52.15-84.93-43.86-7.41-13.23,171.39,49.72-3.44.27-90.56,53.23,97.44,45.16-7.41,9.26-166.89-47.61,3.7Z"/>
      <g>
        <path class="cls-1" d="M163.69,414.89c10.95,15.2-9.15,31.45-21.66,19.93-71.92-66.26-107.03-203.82-5.18-260.46,78.51-43.66,190.04,5.71,192.99,99.47.17,5.54.2,11.39-3.8,15.75-7.15,7.77-23.26,4.13-25.46-6.38-.69-3.29.19-6.88-.21-10.18-10.02-84.48-114.79-114.65-172.5-55.72-43.82,44.75-24.47,119.95,8.29,165.43,8.31,11.53,19.93,21.63,27.52,32.17ZM320.72,368.59c-37.58,1.74-74.85-11.95-94.56-45.58-10.63-18.14-8.55-28.26-11.47-47.36-1.31-8.53-10.58-12.27-18.35-10.67-13.23,2.73-10.48,22.33-9.17,32.13,8.71,65.36,76.62,109.36,140.24,99.8,11.46-1.72,24.55-4.88,21.06-19.73-3.41-14.45-18.29-9.04-27.75-8.6ZM78.75,60.01c7.15-1.76,20.32-9.83,28.49-13.03,73.09-28.64,150.06-20.35,219.61,13.55,15.44,1.9,25.04-17.8,10.33-26.77C298.23,10,232.02-2.09,186.88.3c-29.77,1.57-59.7,8.31-87.42,19-7.63,2.94-33.15,13.32-36.99,19.25-6.78,10.47,2.97,24.74,16.28,21.47ZM37.24,199.31c-25.71,46.24-25.87,117.13-5.06,165.41,7.3,16.94,27.63,12.66,29.38-4.22-30.9-79.93-19.51-161.32,59.5-205.42,94.36-52.68,231.79,3.37,235.57,117.93,1.91,57.85-75.26,56.93-83.69,13.61-1.04-5.35-.48-11.75-1.19-16.98-10.98-80.99-146.98-79.94-141.82,20.69,3.37,65.74,46.62,119.29,106.48,143.55,8.78,3.56,17.91,5.9,26.79,9.11h6.92c8.6-4.42,12.94-15.13,6.51-23.38-4.01-5.14-17.94-8.06-24.65-10.82-53.34-21.95-99.17-71.48-93.45-133.19,3.25-35.11,51.86-47.06,74.83-21.22,12.19,13.71,7.24,26.31,11.43,42.21,11.73,44.59,68.22,63.37,106.92,40.68,60.9-35.7,29.25-128.29-8.47-170.28-84.97-94.6-243.87-79.43-305.99,32.31ZM402.67,156.01c-1.36-4.56-12.86-18.15-16.61-22.33-49.76-55.42-124.82-83.86-199.19-79.75-56.09,3.1-111.59,25.45-152.97,63.32C26.42,124.11,1.5,150.01.26,158.87c-.9,6.45.38,12.57,6.6,15.74,14.59,7.43,24.43-13.19,32.67-22.31,80.57-89.15,231.2-93.55,316.27-8.25,7.78,7.8,13.98,17.95,21.15,25.57,12.18,12.96,30.38,2.07,25.72-13.61Z"/>
        <g>
          <rect x="110.71" y="277.97" width="63.28" height="84.38" rx="23.65" ry="23.65" transform="translate(-103.41 70.42) rotate(-20.57)"/>
          <rect x="167.52" y="178.87" width="63.28" height="159.6" rx="23.65" ry="23.65" transform="translate(-78.18 86.46) rotate(-20.57)"/>
          <rect x="225.26" y="84.91" width="63.28" height="229.51" rx="23.65" ry="23.65" transform="translate(-53.77 102.99) rotate(-20.57)"/>
        </g>
        <g>
          <rect class="cls-3" x="102.1" y="274.57" width="63.28" height="84.38" rx="23.65" ry="23.65" transform="translate(-102.76 67.18) rotate(-20.57)"/>
          <rect class="cls-2" x="158.91" y="175.47" width="63.28" height="159.6" rx="23.65" ry="23.65" transform="translate(-77.54 83.22) rotate(-20.57)"/>
          <rect class="cls-4" x="216.65" y="81.51" width="63.28" height="229.51" rx="23.65" ry="23.65" transform="translate(-53.13 99.75) rotate(-20.57)"/>
        </g>
      </g>
    </g>
  </g>
</svg>