<svg width="38" height="38" viewBox="0 0 38 38" fill="none" xmlns="http://www.w3.org/2000/svg">
<path d="M26.0086 19.3434L15.748 23.3935L21.9585 31.4332H23.9835C31.2826 30.9053 35.0385 25.0225 35.7696 21.3685L26.0086 19.3434ZM24.9961 11.243C25.5557 11.243 26.0086 10.79 26.0086 10.2304C26.0086 9.67082 26.4622 9.21788 27.0211 9.21788C27.5801 9.21788 28.0338 9.6715 28.0338 10.2304V14.2806C28.0338 14.8402 28.4867 15.2932 29.0463 15.2932C29.6059 15.2932 30.0588 14.8402 30.0588 14.2806V6.18022C30.0588 5.62129 30.5125 5.16767 31.0713 5.16767C31.6302 5.16767 32.0839 5.62129 32.0839 6.18022C32.0839 6.73916 32.5369 7.19277 33.0964 7.19277C33.656 7.19277 34.1089 6.73982 34.1089 6.18022C34.1089 4.50547 32.7461 3.14258 31.0713 3.14258C29.3966 3.14258 28.0338 4.50547 28.0338 6.18022V7.37909C27.7158 7.26568 27.3776 7.19277 27.0211 7.19277C25.3465 7.19277 23.9835 8.55566 23.9835 10.2304C23.9835 10.79 24.4364 11.243 24.9961 11.243Z" fill="#EAF6FF"/>
<path d="M35.1214 17.3185H16.7606C14.2696 17.3185 12.204 15.5162 11.7788 13.1469C14.0469 12.6406 15.7479 10.6155 15.7479 8.20563V6.18052C15.7479 5.6135 15.3024 5.16797 14.7354 5.16797H12.7103C11.0497 5.16797 9.59166 5.95777 8.66011 7.19306C7.72857 5.95777 6.27049 5.16797 4.60991 5.16797H2.58481C2.01778 5.16797 1.57227 5.6135 1.57227 6.18052V8.20563C1.57227 10.656 3.31384 12.7013 5.62245 13.1671V18.3312C5.62245 25.257 11.124 30.9272 17.908 31.4538V34.532C17.908 35.0989 18.3535 35.5445 18.9207 35.5445C20.6015 35.5445 21.9583 34.1876 21.9583 32.5068V27.3678C22.3011 27.4056 22.6434 27.4421 22.9843 27.4421C26.7847 27.4421 30.2564 25.0537 31.5559 21.3688H35.7695C36.0125 20.3967 36.1339 19.3842 36.1339 18.3312C36.1339 17.764 35.6884 17.3185 35.1214 17.3185ZM26.0942 24.6933C24.8089 25.3279 23.3887 25.5256 21.9583 25.3272V24.4065C21.9583 22.7255 23.315 21.3688 24.996 21.3688H29.3256C28.6499 22.7822 27.5543 23.973 26.0942 24.6933Z" fill="url(#paint0_linear_3912_1610)"/>
<defs>
<linearGradient id="paint0_linear_3912_1610" x1="18.8531" y1="35.5462" x2="18.8531" y2="5.16797" gradientUnits="userSpaceOnUse">
<stop stop-color="#FF5135"/>
<stop offset="1" stop-color="#AF3622"/>
</linearGradient>
</defs>
</svg>
